<svg width="354" height="236" viewBox="0 0 354 236" fill="none" xmlns="http://www.w3.org/2000/svg">
<path d="M78.2858 216.077C84.6484 211.664 86.1163 203.441 85.8897 196.045C85.852 194.813 85.9936 193.511 85.4177 192.425C84.8419 191.339 83.4684 190.598 82.3592 191.113C81.4435 191.542 81.0376 192.604 80.5231 193.473C79.8348 194.647 78.8284 195.603 77.6203 196.229C76.832 196.63 75.8597 196.876 75.0809 196.446C74.0189 195.856 73.9009 194.384 73.9104 193.142C73.9355 190.855 73.9576 188.567 73.9764 186.28C74.0557 185.064 73.9394 183.843 73.6319 182.664C73.2543 181.498 72.4141 180.413 71.2436 180.077C70.073 179.742 68.6334 180.417 68.3832 181.616C68.3336 182.124 68.3194 182.635 68.3408 183.145C68.3476 183.4 68.2791 183.651 68.1439 183.867C68.0087 184.082 67.8129 184.254 67.5808 184.358C67.1088 184.5 66.5991 184.151 66.2356 183.792C64.9707 182.546 64.1164 180.96 63.3187 179.355C62.521 177.75 61.7469 176.136 60.6 174.782C59.453 173.427 57.8671 172.346 56.1112 172.242C54.3554 172.138 52.4768 173.215 52.0237 174.937C51.5706 176.66 52.576 178.43 53.671 179.832C55.2862 181.916 57.1939 183.755 59.335 185.293C59.7508 185.527 60.0813 185.888 60.279 186.322C60.5386 187.143 59.7645 187.95 58.9527 188.21C58.037 188.512 57.0647 188.413 56.0876 188.522C55.1106 188.63 54.0911 189.05 53.7276 189.938C53.2226 191.193 54.2657 192.51 55.2947 193.374C57.3575 195.109 59.7049 196.474 62.2331 197.409C63.1617 197.671 64.0349 198.1 64.8102 198.674C65.5371 199.311 65.9713 200.416 65.5276 201.28C65.084 202.143 63.9559 202.417 63.0072 202.224C62.0584 202.03 61.2183 201.53 60.3168 201.185C58.6317 200.543 56.4511 200.652 55.3655 202.106C55.0345 202.607 54.8239 203.178 54.7502 203.774C54.6765 204.37 54.7417 204.975 54.9407 205.542C55.3482 206.669 55.9773 207.702 56.7909 208.582C59.4542 211.803 62.9253 214.259 66.8492 215.699C70.7574 217.073 74.4012 217.45 78.2764 216.044" fill="#E6D14C"/>
<path d="M77.8799 218.159C77.6251 215.228 77.4929 215.166 76.4073 211.433C75.1954 207.399 73.7519 203.439 72.0838 199.571C71.6433 198.542 71.2122 197.526 70.7905 196.522C70.361 195.522 69.9409 194.53 69.4642 193.586C68.5462 191.778 67.5283 190.023 66.4151 188.328C65.3719 186.695 64.3194 185.189 63.3235 183.783C62.3275 182.376 61.3741 181.092 60.4537 179.955C59.0154 178.153 57.4371 176.468 55.7337 174.914C55.1295 174.362 54.6481 173.97 54.3177 173.677L53.9401 173.371C53.8551 173.3 53.8079 173.267 53.8032 173.271C53.842 173.313 53.883 173.352 53.9259 173.389L54.2894 173.715C54.6103 173.998 55.0823 174.418 55.6771 174.98C57.3573 176.554 58.9177 178.252 60.3451 180.059C61.2561 181.196 62.2001 182.49 63.1771 183.896C64.1542 185.303 65.2067 186.813 66.2499 188.442C67.3472 190.138 68.3509 191.893 69.2565 193.7C69.7285 194.644 70.1486 195.625 70.5734 196.626C70.9982 197.627 71.4277 198.646 71.8667 199.675C73.5305 203.536 74.977 207.486 76.1996 211.508C77.2899 215.228 77.4363 215.284 77.7147 218.187" fill="#263238"/>
<path d="M69.3839 193.577C69.442 193.407 69.4815 193.231 69.5019 193.053C69.568 192.713 69.6482 192.222 69.7379 191.608C69.9125 190.386 70.1013 188.691 70.3043 186.822C70.5072 184.953 70.7149 183.263 70.9084 182.046C71.0076 181.437 71.0878 180.946 71.1539 180.606C71.1975 180.432 71.2197 180.253 71.22 180.073C71.1528 180.239 71.1006 180.411 71.0642 180.587C70.9792 180.922 70.8707 181.413 70.7527 182.003C70.5167 183.216 70.2807 184.911 70.0777 186.78C69.8748 188.649 69.7096 190.296 69.5774 191.575C69.516 192.151 69.4594 192.637 69.4169 193.024C69.3817 193.206 69.3705 193.392 69.3839 193.577Z" fill="#263238"/>
<path d="M53.6096 190.57C53.8173 190.617 54.0291 190.644 54.2421 190.65C54.6433 190.688 55.2333 190.735 55.9555 190.825C57.3998 190.985 59.3869 191.297 61.5675 191.698C63.7482 192.099 65.7023 192.585 67.1088 192.963C67.8121 193.147 68.3785 193.312 68.7703 193.435C68.9718 193.502 69.1786 193.553 69.3886 193.586C69.1992 193.489 69.0018 193.408 68.7986 193.345C68.4115 193.208 67.8546 193.02 67.1513 192.817C65.7353 192.397 63.7954 191.906 61.61 191.481C59.7373 191.114 57.8468 190.844 55.946 190.674C55.2191 190.608 54.6291 190.579 54.2232 190.57C54.0191 190.552 53.8138 190.552 53.6096 190.57Z" fill="#263238"/>
<path d="M76.1995 211.144C76.2456 211.085 76.2836 211.02 76.3127 210.951C76.3835 210.795 76.4732 210.606 76.5818 210.38C76.8178 209.884 77.134 209.157 77.5258 208.256C78.2904 206.448 79.2769 203.923 80.32 201.114C81.3631 198.306 82.326 195.776 83.0529 193.959L83.9261 191.806C84.0158 191.57 84.096 191.377 84.1574 191.221C84.2187 191.065 84.2329 191.014 84.2235 191.009C84.1795 191.069 84.1431 191.134 84.1149 191.202L83.8459 191.769C83.6099 192.269 83.2889 192.996 82.9019 193.897C82.1325 195.7 81.1507 198.23 80.1076 201.034C79.0645 203.838 78.1016 206.372 77.37 208.194C77.016 209.077 76.7187 209.804 76.5015 210.342C76.4071 210.578 76.3316 210.771 76.2703 210.932C76.2394 211 76.2156 211.071 76.1995 211.144Z" fill="#263238"/>
<path d="M55.2476 204.31C55.3135 204.346 55.3831 204.374 55.4552 204.395L56.0641 204.603L58.3108 205.339C60.1988 205.957 62.809 206.85 65.6882 207.831C68.5674 208.813 71.187 209.686 73.0939 210.267C74.0379 210.559 74.8214 210.786 75.3595 210.932L75.9825 211.102C76.0535 211.123 76.1262 211.137 76.1997 211.145C76.1997 211.145 76.1336 211.107 75.992 211.055L75.3878 210.852L73.16 210.116C71.272 209.493 68.6618 208.605 65.7779 207.619C62.894 206.632 60.2838 205.764 58.3769 205.183C57.4329 204.891 56.6494 204.664 56.1113 204.518L55.4883 204.353C55.4115 204.323 55.3298 204.309 55.2476 204.31Z" fill="#263238"/>
<path d="M154.929 218.153H89.241C81.3067 218.12 74.609 211.352 74.6326 203.413L75.3312 37.9722C75.3386 36.084 75.718 34.2157 76.4478 32.4742C77.1775 30.7327 78.2433 29.152 79.5841 27.8225C80.925 26.4931 82.5147 25.4409 84.2624 24.726C86.0101 24.0112 87.8815 23.6477 89.7697 23.6564L155.76 23.9632C157.647 23.9712 159.514 24.351 161.255 25.0808C162.995 25.8106 164.575 26.8761 165.903 28.2164C167.232 29.5568 168.283 31.1457 168.998 32.8926C169.712 34.6394 170.075 36.5098 170.066 38.397L169.368 203.838C169.36 205.726 168.981 207.594 168.251 209.336C167.521 211.077 166.456 212.658 165.115 213.987C163.774 215.317 162.184 216.369 160.437 217.084C158.689 217.799 156.817 218.162 154.929 218.153Z" fill="#263238"/>
<path d="M155.67 30.2454L142.874 30.2076C142.457 30.215 142.046 30.3045 141.663 30.4709C141.28 30.6374 140.934 30.8777 140.645 31.1779C140.355 31.4781 140.127 31.8325 139.974 32.2208C139.822 32.6091 139.747 33.0236 139.754 33.4408V35.763C139.768 36.6052 139.448 37.4185 138.863 38.0246C138.278 38.6307 137.477 38.9801 136.635 38.9962L111.694 38.8782C111.277 38.8672 110.866 38.7741 110.485 38.6042C110.104 38.4343 109.76 38.191 109.472 37.8881C109.185 37.5852 108.961 37.2287 108.811 36.839C108.662 36.4492 108.591 36.0339 108.602 35.6167V33.2992C108.623 32.4561 108.308 31.6392 107.728 31.0272C107.148 30.4151 106.349 30.0577 105.506 30.033H101.008L89.8074 29.981C88.4853 29.9755 87.175 30.2303 85.9514 30.7311C84.7278 31.2319 83.6148 31.9688 82.676 32.8998C81.7372 33.8307 80.9909 34.9374 80.4798 36.1568C79.9687 37.3761 79.7028 38.6842 79.6972 40.0063L79.0128 201.454C79.0015 204.123 80.0507 206.688 81.9298 208.584C83.8089 210.48 86.364 211.552 89.0333 211.564L154.892 211.866C156.214 211.873 157.525 211.619 158.75 211.119C159.974 210.618 161.088 209.882 162.027 208.951C162.967 208.019 163.714 206.912 164.225 205.692C164.736 204.472 165.002 203.164 165.006 201.841L165.672 40.3556C165.682 37.6899 164.635 35.1289 162.76 33.2338C160.885 31.3387 158.336 30.2641 155.67 30.2454Z" fill="#F5F5F5"/>
<path d="M127.718 181.351C127.643 183.301 127.572 185.127 127.511 186.652H136.951L135.794 180.837L127.718 181.351Z" fill="#F5F5F5"/>
<path d="M89.2693 183.783L89.3495 186.652H126.567C126.628 185.038 126.699 183.254 126.77 181.413L89.2693 183.783Z" fill="#F5F5F5"/>
<path d="M136.29 180.809L137.451 186.647H154.896L154.684 179.647L136.29 180.809Z" fill="#F5F5F5"/>
<path d="M128.663 99.1577L131.962 80.0369L123.324 79.395V99.1577H128.663Z" fill="#F5F5F5"/>
<path d="M88.4906 173.167L79.1167 176.839L79.0884 183.48L88.7691 182.867L88.4906 173.167Z" fill="#F5F5F5"/>
<path d="M88.4481 171.676L87.9383 153.867H87.9288V147.585L79.2346 148.505L79.1213 175.32L88.4433 171.666L88.4481 171.676Z" fill="#F5F5F5"/>
<path d="M87.9289 133.567L79.3055 132.424L79.2441 147.085L87.9289 146.164V133.567Z" fill="#F5F5F5"/>
<path d="M152.211 147.849L151.847 152.956L141.661 154.051L142.45 158.092L154.009 157.218L153.839 151.427L154.759 147.594L152.211 147.849Z" fill="#F5F5F5"/>
<path d="M133.85 158.738L141.973 158.124L140.203 149.062L133.114 149.779L133.85 158.738Z" fill="#F5F5F5"/>
<path d="M133.93 159.682L134.548 167.239L135.648 177.604L136.101 179.874L154.655 178.704L154.037 158.162L133.93 159.682Z" fill="#F5F5F5"/>
<path d="M101.994 123.994L102.707 125.217L88.4009 133.576V153.376L103.505 152.305L132.632 149.355L131.565 136.379L103.76 132.745L103.944 131.329L131.447 134.921L129.644 112.959L102.419 115.574L102.33 114.63L129.564 112.015L128.62 100.555H102.424L79.4329 104.737L79.3196 130.98L88.0185 132.16L101.994 123.994ZM89.8641 151.469C89.8641 151.469 89.9726 135.148 89.8641 134.539L101.541 128.327L103.056 150.639L89.8641 151.469Z" fill="#F5F5F5"/>
<path d="M151.252 147.948L140.675 149.015L141.477 153.121L150.96 152.102L151.252 147.948Z" fill="#F5F5F5"/>
<path d="M127.851 177.854C127.818 178.713 127.785 179.563 127.756 180.403L135.629 179.902L135.223 177.873L127.851 177.854Z" fill="#F5F5F5"/>
<path d="M110.892 99.1575L112.279 92.8657H122.852V79.3618L89.7981 76.9121V89.5948L79.4754 91.9312L79.4282 103.316L102.287 99.1575H110.892Z" fill="#F5F5F5"/>
<path d="M132.948 61.5723L132.665 60.4159L145.286 55.4222L137.078 38.9399C136.922 38.9652 136.764 38.9778 136.606 38.9777L122.659 38.9116L123.036 61.9783L132.948 61.5723Z" fill="#F5F5F5"/>
<path d="M152.074 52.7318V30.2316L142.874 30.208C142.457 30.2154 142.046 30.3049 141.663 30.4714C141.28 30.6378 140.934 30.8781 140.645 31.1783C140.355 31.4786 140.127 31.8329 139.974 32.2212C139.822 32.6095 139.747 33.024 139.754 33.4412V35.7634C139.754 36.282 139.632 36.7931 139.397 37.2556C139.163 37.7181 138.823 38.1189 138.405 38.4255L146.617 54.9172L152.074 52.7318Z" fill="#F5F5F5"/>
<path d="M104.628 53.6991L103.561 30.0047H101.008L91.0251 29.9575L86.7771 51.1456L104.628 53.6991ZM102.353 32.4072L102.693 51.7026L89.425 49.7626L92.3278 32.4072H102.353Z" fill="#F5F5F5"/>
<path d="M105.11 53.7699V53.9682C105.11 55.8184 105.166 59.1602 105.195 62.7049L122.578 61.9969L122.201 38.9114L111.68 38.8594C111.263 38.8484 110.852 38.7553 110.471 38.5854C110.089 38.4155 109.745 38.1722 109.458 37.8693C109.171 37.5664 108.947 37.2099 108.797 36.8202C108.648 36.4304 108.577 36.0151 108.588 35.5979V33.2804C108.609 32.4373 108.294 31.6204 107.714 31.0084C107.134 30.3963 106.335 30.0389 105.492 30.0142H104.024L105.091 53.7699H105.11Z" fill="#F5F5F5"/>
<path d="M85.3705 50.9335L89.5808 29.9531C86.9513 30 84.4446 31.0744 82.5973 32.9463C80.75 34.8183 79.709 37.339 79.6971 39.969L79.6499 50.4285L79.6971 50.1217L85.3705 50.9335Z" fill="#F5F5F5"/>
<path d="M88.3819 76.8084L79.5413 76.1523L79.48 90.4775L88.3819 88.4621V76.8084Z" fill="#F5F5F5"/>
<path d="M85.2761 51.396L79.6499 50.5889L79.5508 73.7877L80.7638 73.8773L85.2761 51.396Z" fill="#F5F5F5"/>
<path d="M103.132 171.402L103.278 152.781L88.4055 153.834L88.9342 172.077L103.132 171.402Z" fill="#F5F5F5"/>
<path d="M105.87 167.088L126.93 177.179C127.185 170.571 127.402 164.435 127.402 164.024L127.874 164.001L128.101 163.557C128.398 163.703 128.398 163.703 128.242 168.202C128.153 170.708 128.03 174.045 127.903 177.382H135.186L134.114 167.262L132.698 149.798L105.176 152.574L105.87 167.088Z" fill="#F5F5F5"/>
<path d="M157.502 136.2L157.261 133.741L132.014 136.37L133.076 149.308L154.877 147.108L157.502 136.2Z" fill="#F5F5F5"/>
<path d="M122.852 94.2817H113.417L112.341 99.1575H122.852V94.2817Z" fill="#F5F5F5"/>
<path d="M153.603 95.929L129.979 94.2959L129.035 99.8749L130.031 111.986L154.943 109.589L153.603 95.929ZM130.848 99.8655L132.118 96.3444L152.635 97.6424L153.82 107.715L131.542 110.358L130.848 99.8655Z" fill="#F5F5F5"/>
<path d="M156.053 121.242L155.014 110.533L130.088 112.926L131.027 124.325L156.053 121.242Z" fill="#F5F5F5"/>
<path d="M88.7974 183.815L79.1261 184.424L79.0884 183.796L79.0742 186.647H88.8776L88.7974 183.815Z" fill="#F5F5F5"/>
<path d="M165.516 47.4122L165.658 47.7757L165.672 40.3558C165.682 37.6869 164.632 35.1231 162.754 33.2274C160.875 31.3318 158.32 30.2593 155.651 30.2456H152.513V52.5618L165.516 47.4122Z" fill="#F5F5F5"/>
<path d="M126.911 177.713L105.412 167.409L104.652 152.649L103.755 152.739L103.599 171.855L88.9436 172.549V172.974L89.2268 182.829L126.793 180.469C126.84 179.549 126.878 178.628 126.911 177.713ZM89.864 173.767L110.377 172.351L123.721 178.539L89.864 180.37V173.767Z" fill="#F5F5F5"/>
<path d="M159.404 72.2158L160.286 67.0002C152.574 64.2484 152.041 56.2055 152.064 53.7842L147.033 55.776L154.608 70.9886L159.404 72.2158Z" fill="#F5F5F5"/>
<path d="M131.896 134.959L142.379 133.869L140.316 124.608L131.14 125.741L131.896 134.959Z" fill="#F5F5F5"/>
<path d="M153.636 80.1925H134.057L132.434 80.0698L130.22 92.8941L153.461 94.4989L152.923 88.9245L155.212 80.6929L153.636 80.1925Z" fill="#F5F5F5"/>
<path d="M153.159 77.8326L153.405 71.6966L145.711 56.248L133.779 60.968L137.88 77.809L153.159 77.8326ZM145.244 58.1455L152.295 71.5597L151.276 75.7416L139.212 75.2696L136.195 62.5823L145.244 58.1455Z" fill="#F5F5F5"/>
<path d="M156.204 151.672L156.567 163.694L165.049 163.218L165.077 163.69L156.581 164.166L157.011 178.553L165.035 178.043L165.091 178.987L157.039 179.497L157.256 186.648H165.073L165.242 146.537L157.247 147.344L156.204 151.672Z" fill="#F5F5F5"/>
<path d="M104.642 54.1758L86.678 51.5986L82.1846 73.9809L104.723 75.6518C104.812 72.2156 104.732 61.6334 104.642 54.1758Z" fill="#F5F5F5"/>
<path d="M134.189 77.8327H136.908L133.061 62.0396L123.064 62.4502L123.305 77.0255L134.189 77.8327Z" fill="#F5F5F5"/>
<path d="M105.18 75.6848L122.829 76.9922L122.593 62.4688L105.204 63.1768C105.256 68.0903 105.256 73.3295 105.18 75.6848Z" fill="#F5F5F5"/>
<path d="M156.19 122.654L140.783 124.551L142.856 133.817L157.124 132.335L156.19 122.654Z" fill="#F5F5F5"/>
<path d="M160.367 66.5045L161.353 60.6517L165.601 60.9821L165.658 48.375L152.541 53.567C152.272 62.4359 157.846 65.5558 160.367 66.5045Z" fill="#F5F5F5"/>
<path d="M155.316 89.1322L155.85 94.6641L165.46 95.3296L165.507 83.9402L157.464 81.4009L155.316 89.1322Z" fill="#F5F5F5"/>
<path d="M159.885 136.366L157.365 146.858L165.242 146.06L165.29 135.058C162.873 134.421 160.763 133.902 159.626 133.685L159.885 136.366Z" fill="#F5F5F5"/>
<path d="M154.571 78.0118L165.516 81.4716L165.545 75.2459L154.792 72.4658L154.571 78.0118Z" fill="#F5F5F5"/>
<path d="M159.489 132.245C160.371 132.377 162.042 132.717 165.294 133.59L165.398 109.518L157.374 110.292L159.489 132.245Z" fill="#F5F5F5"/>
<path d="M157.275 109.367L165.403 108.583L165.45 96.7503L155.987 96.0942L157.275 109.367Z" fill="#F5F5F5"/>
<path d="M161.273 66.802C162.687 67.2405 164.122 67.6075 165.573 67.9018V61.9263L162.113 61.6572L161.273 66.802Z" fill="#F5F5F5"/>
<path d="M160.324 72.4329L165.549 73.7828L165.573 68.3878C164.218 68.1141 162.741 67.7459 161.193 67.2739L160.324 72.4329Z" fill="#F5F5F5"/>
<path d="M88.7974 183.811L88.8777 186.643H89.3497L89.2694 183.773L126.77 181.413C126.699 183.254 126.628 185.038 126.567 186.652H127.511C127.572 185.128 127.643 183.301 127.719 181.352L135.813 180.837L136.97 186.652H137.442L136.281 180.809L154.689 179.648L154.901 186.652H157.261L157.044 179.497L165.096 178.987L165.04 178.043L157.016 178.553L156.586 164.166L165.082 163.694L165.054 163.222L156.558 163.694L156.194 151.672L157.237 147.344L165.233 146.537V146.065L157.355 146.862L159.876 136.37L159.616 133.689C160.754 133.906 162.864 134.425 165.28 135.062V133.576C162.028 132.717 160.357 132.363 159.475 132.23L157.351 110.292L165.375 109.518V108.574L157.247 109.357L155.958 96.0847L165.398 96.7408V95.3248L155.788 94.6593L155.255 89.1275L157.403 81.3961L165.427 83.9355V81.4669L154.481 78.0071L154.703 72.4611L165.455 75.2412V73.778L160.23 72.4281L161.098 67.2691C162.665 67.7411 164.124 68.1093 165.479 68.383V67.911C164.028 67.6168 162.593 67.2497 161.179 66.8113L162.042 61.6665L165.502 61.9355V60.9915L161.254 60.6611L160.268 66.5139C157.747 65.5699 152.173 62.4453 152.442 53.5717L165.559 48.3797V47.7802L165.417 47.4168L152.447 52.5522V30.236H151.975V52.7362L146.509 54.9027L138.296 38.411C137.906 38.692 137.455 38.8749 136.979 38.9444L145.187 55.4266L132.665 60.4157L132.948 61.5721L123.036 61.978L122.659 38.9114H122.187L122.564 61.9969L105.181 62.7049C105.152 59.146 105.114 55.8184 105.096 53.9682V53.7699L104.029 30.0142H103.557L104.624 53.7086L86.7678 51.1456L91.0158 29.9575H89.7981H89.5715L85.3613 50.9379L79.6973 50.1261L79.6501 50.4329V50.5934L85.2763 51.4005L80.764 73.8818L79.5509 73.7922V76.1522L88.3915 76.8082V88.4619L79.4896 90.4774V91.9311L89.8122 89.5711V76.9357L122.852 79.3854V92.894H112.279L110.892 99.1811H102.287L79.4282 103.339V104.779L102.424 100.573H128.611L129.555 112.034L102.32 114.648L102.41 115.592L129.635 112.978L131.438 134.94L103.934 131.348L103.75 132.764L131.556 136.398L132.632 149.355L103.524 152.29L88.4198 153.362V133.576L102.726 125.231L102.013 124.008L88.0186 132.16L79.2961 130.999V132.415L87.9289 133.576V146.173L79.2441 147.094V148.51L87.9384 147.589V153.872L88.4529 171.68L79.1309 175.334V176.853L88.5048 173.181L88.7833 182.881L79.1025 183.494V183.811L79.1403 184.438L88.7974 183.811ZM127.756 180.403C127.785 179.563 127.818 178.713 127.851 177.854H135.223L135.629 179.884L127.756 180.403ZM136.101 179.874L135.629 177.604L134.53 167.22L133.911 159.668L154.018 158.148L154.637 178.685L136.101 179.874ZM140.656 149.015L151.238 147.948L150.941 152.102L141.458 153.121L140.656 149.015ZM140.184 149.062L141.954 158.124L133.831 158.738L133.095 149.77L140.184 149.062ZM153.99 157.218L142.431 158.091L141.643 154.051L151.828 152.956L152.192 147.849L154.741 147.594L153.82 151.427L153.99 157.218ZM140.302 124.608L142.365 133.868L131.882 134.959L131.126 125.74L140.302 124.608ZM142.841 133.816L140.769 124.551L156.175 122.663L157.119 132.344L142.841 133.816ZM153.447 94.4988L130.206 92.8893L132.42 80.0698L134.043 80.1925H153.627L155.198 80.6928L152.928 88.9245L153.447 94.4988ZM152.031 53.751C152.008 56.1866 152.541 64.2294 160.254 66.967L159.404 72.2157L154.608 70.9743L147.033 55.7429L152.031 53.751ZM145.678 56.2668L153.4 71.7154L153.155 77.8514H137.881L133.779 61.0104L145.678 56.2668ZM133.029 62.0394L136.875 77.8325H134.19L123.305 77.0301L123.065 62.45L133.029 62.0394ZM122.56 62.4689L122.796 76.9923L105.148 75.6849C105.223 73.3249 105.209 68.0904 105.148 63.1769L122.56 62.4689ZM86.6451 51.6129L104.609 54.19C104.699 61.6476 104.779 72.2204 104.69 75.666L82.1517 73.9951L86.6451 51.6129ZM131.929 80.0509L128.625 99.1716H123.324V79.3948L131.929 80.0509ZM113.384 94.3006H122.824V99.1716H112.336L113.384 94.3006ZM128.96 99.8891L129.904 94.31L153.528 95.9431L154.849 109.603L129.937 112.001L128.96 99.8891ZM154.958 110.547L155.996 121.256L130.98 124.343L130.036 112.94L154.958 110.547ZM131.957 136.384L157.204 133.755L157.445 136.214L154.821 147.122L133.019 149.322L131.957 136.384ZM134.024 167.295L135.096 177.415H127.87C127.997 174.078 128.12 170.741 128.209 168.235C128.365 163.736 128.365 163.736 128.068 163.59L127.841 164.034L127.369 164.057C127.369 164.449 127.166 170.618 126.897 177.212L105.87 167.088L105.124 152.583L132.632 149.827L134.024 167.295ZM103.222 152.796L103.075 171.416L88.8777 172.091L88.349 153.848L103.222 152.796ZM88.9013 172.997V172.572L103.557 171.879L103.713 152.762L104.609 152.673L105.369 167.432L126.869 177.736C126.836 178.652 126.798 179.572 126.765 180.488L89.1986 182.848L88.9013 172.997Z" fill="white"/>
<path d="M110.377 172.327L89.864 173.762V180.351L123.725 178.515L110.377 172.327Z" fill="#EBEBEB"/>
<path d="M152.635 97.6422L132.118 96.3442L130.848 99.8654L131.542 110.358L153.82 107.715L152.635 97.6422Z" fill="#EBEBEB"/>
<path d="M89.0333 211.565L154.891 211.867C156.214 211.873 157.525 211.619 158.75 211.119C159.974 210.619 161.088 209.882 162.027 208.951C162.967 208.02 163.713 206.913 164.225 205.693C164.736 204.473 165.001 203.164 165.006 201.841L165.072 186.652H79.0741L79.0269 198.141V201.756C79.0931 204.371 80.1747 206.857 82.0426 208.688C83.9104 210.519 86.4178 211.551 89.0333 211.565Z" fill="#EBEBEB"/>
<path d="M102.693 51.7026L102.353 32.4072H92.3326L89.425 49.7627L102.693 51.7026Z" fill="#EBEBEB"/>
<path d="M151.276 75.7417L152.295 71.5597L145.244 58.1455L136.196 62.6012L139.212 75.2885L151.276 75.7417Z" fill="#EBEBEB"/>
<path d="M89.864 134.52C89.9726 135.129 89.864 151.45 89.864 151.45L103.08 150.62L101.565 128.308L89.864 134.52Z" fill="#EBEBEB"/>
<path d="M133.855 147.792L133.156 137.678L155.779 134.77V136.516L153.041 145.82L133.855 147.792Z" fill="#EBEBEB"/>
<path d="M117.122 63.9039C117.122 64.4491 116.96 64.9821 116.658 65.4354C116.355 65.8887 115.924 66.242 115.42 66.4506C114.917 66.6592 114.363 66.7138 113.828 66.6074C113.293 66.5011 112.802 66.2386 112.416 65.8531C112.031 65.4676 111.768 64.9764 111.662 64.4417C111.556 63.907 111.61 63.3528 111.819 62.8491C112.028 62.3454 112.381 61.9149 112.834 61.612C113.287 61.3091 113.82 61.1475 114.366 61.1475C115.097 61.1475 115.798 61.4379 116.315 61.9548C116.832 62.4718 117.122 63.1729 117.122 63.9039Z" fill="#E6D14C"/>
<g opacity="0.6">
<path opacity="0.6" d="M117.117 63.7856C117.141 64.3305 117.003 64.8701 116.72 65.3363C116.437 65.8025 116.022 66.1743 115.527 66.4046C115.033 66.6349 114.481 66.7133 113.943 66.6301C113.404 66.5468 112.901 66.3055 112.5 65.9367C112.098 65.568 111.814 65.0883 111.685 64.5585C111.556 64.0286 111.587 63.4723 111.774 62.9601C111.961 62.4478 112.296 62.0026 112.737 61.6807C113.177 61.3588 113.703 61.1748 114.248 61.1519C114.977 61.1211 115.689 61.3813 116.227 61.8751C116.765 62.3689 117.085 63.056 117.117 63.7856Z" fill="white"/>
</g>
<path d="M114.366 65.6408C115.377 65.6408 116.197 64.8208 116.197 63.8094C116.197 62.798 115.377 61.978 114.366 61.978C113.354 61.978 112.534 62.798 112.534 63.8094C112.534 64.8208 113.354 65.6408 114.366 65.6408Z" fill="#E6D14C"/>
<path d="M156.954 173.95C156.95 174.182 156.878 174.408 156.747 174.599C156.616 174.791 156.431 174.939 156.216 175.026C156.001 175.113 155.765 175.134 155.538 175.088C155.31 175.041 155.102 174.929 154.938 174.764C154.775 174.6 154.663 174.391 154.617 174.164C154.572 173.936 154.594 173.7 154.682 173.485C154.769 173.271 154.918 173.087 155.11 172.956C155.302 172.825 155.528 172.754 155.76 172.752C155.918 172.75 156.074 172.779 156.22 172.839C156.366 172.899 156.499 172.987 156.61 173.099C156.722 173.211 156.809 173.343 156.868 173.49C156.928 173.636 156.957 173.793 156.954 173.95Z" fill="#E6D14C"/>
<path d="M155.071 173.568L154.783 166.96L134.902 167.928C134.381 167.952 133.863 167.842 133.397 167.607L105.195 153.362C104.874 153.199 104.601 152.955 104.405 152.653C104.209 152.351 104.095 152.003 104.076 151.644L100.234 77.1906C100.225 77.0142 100.253 76.8379 100.317 76.6735C100.382 76.509 100.48 76.3601 100.607 76.2368C100.733 76.1135 100.885 76.0186 101.051 75.9584C101.217 75.8983 101.394 75.8742 101.57 75.8879L113.658 76.78V63.564H115.074V76.9593C115.077 77.1304 115.045 77.3004 114.98 77.4587C114.915 77.617 114.819 77.7603 114.696 77.8797C114.569 77.995 114.42 78.0833 114.257 78.1393C114.095 78.1952 113.923 78.2177 113.752 78.2054L101.673 77.3133L105.501 151.573C105.508 151.683 105.544 151.789 105.604 151.881C105.665 151.973 105.748 152.047 105.846 152.097L134.048 166.351C134.295 166.476 134.57 166.535 134.846 166.521L154.896 165.544C155.228 165.53 155.552 165.647 155.798 165.87C155.921 165.981 156.021 166.115 156.091 166.265C156.162 166.415 156.202 166.578 156.208 166.743L156.496 173.507L155.071 173.568Z" fill="#E6D14C"/>
<path d="M102.547 113.096C104.518 113.096 106.115 111.498 106.115 109.527C106.115 107.557 104.518 105.959 102.547 105.959C100.576 105.959 98.9785 107.557 98.9785 109.527C98.9785 111.498 100.576 113.096 102.547 113.096Z" fill="#E6D14C"/>
<path d="M102.547 112.005C103.915 112.005 105.025 110.896 105.025 109.527C105.025 108.159 103.915 107.049 102.547 107.049C101.178 107.049 100.069 108.159 100.069 109.527C100.069 110.896 101.178 112.005 102.547 112.005Z" fill="#FAFAFA"/>
<path d="M102.547 112.185C102.021 112.186 101.507 112.031 101.069 111.739C100.631 111.448 100.29 111.033 100.088 110.548C99.8863 110.062 99.833 109.528 99.935 109.012C100.037 108.496 100.29 108.022 100.661 107.65C101.033 107.278 101.506 107.024 102.022 106.922C102.537 106.819 103.072 106.871 103.558 107.072C104.044 107.273 104.459 107.614 104.751 108.051C105.043 108.488 105.199 109.002 105.199 109.527C105.198 110.231 104.918 110.906 104.421 111.403C103.924 111.901 103.25 112.182 102.547 112.185ZM102.547 107.224C102.091 107.223 101.645 107.357 101.266 107.61C100.886 107.863 100.59 108.222 100.415 108.643C100.24 109.064 100.194 109.527 100.282 109.974C100.371 110.421 100.59 110.832 100.911 111.155C101.233 111.477 101.644 111.697 102.091 111.786C102.538 111.875 103.001 111.83 103.422 111.656C103.843 111.482 104.203 111.187 104.457 110.808C104.71 110.429 104.845 109.983 104.845 109.527C104.844 108.918 104.602 108.333 104.171 107.902C103.74 107.47 103.156 107.227 102.547 107.224Z" fill="#E6D14C"/>
<path d="M123.565 94.5601H106.573C106.176 94.5601 105.796 94.7178 105.515 94.9984C105.234 95.279 105.077 95.6595 105.077 96.0564V102.192C105.077 102.589 105.234 102.97 105.515 103.25C105.796 103.531 106.176 103.689 106.573 103.689H106.771V105.157L108.475 103.689H123.579C123.976 103.689 124.356 103.531 124.637 103.25C124.918 102.97 125.075 102.589 125.075 102.192V96.0564C125.075 95.8587 125.036 95.663 124.96 95.4805C124.884 95.298 124.773 95.1325 124.632 94.9933C124.492 94.8542 124.325 94.7443 124.142 94.6699C123.959 94.5956 123.763 94.5583 123.565 94.5601Z" fill="#E6D14C"/>
<g opacity="0.4">
<path opacity="0.4" d="M123.565 94.5601H106.573C106.176 94.5601 105.796 94.7178 105.515 94.9984C105.234 95.279 105.077 95.6595 105.077 96.0564V102.192C105.077 102.589 105.234 102.97 105.515 103.25C105.796 103.531 106.176 103.689 106.573 103.689H106.771V105.157L108.475 103.689H123.579C123.976 103.689 124.356 103.531 124.637 103.25C124.918 102.97 125.075 102.589 125.075 102.192V96.0564C125.075 95.8587 125.036 95.663 124.96 95.4805C124.884 95.298 124.773 95.1325 124.632 94.9933C124.492 94.8542 124.325 94.7443 124.142 94.6699C123.959 94.5956 123.763 94.5583 123.565 94.5601Z" fill="white"/>
</g>
<path d="M108.9 99.0348C108.892 98.8319 108.946 98.6314 109.053 98.459C109.16 98.2865 109.316 98.15 109.501 98.0669C109.687 97.9838 109.892 97.9579 110.092 97.9924C110.292 98.027 110.478 98.1206 110.624 98.261C110.771 98.4015 110.872 98.5826 110.915 98.781C110.958 98.9794 110.941 99.1861 110.866 99.3747C110.79 99.5633 110.661 99.7251 110.493 99.8395C110.325 99.9538 110.127 100.015 109.924 100.017C109.791 100.023 109.659 100.002 109.535 99.9558C109.41 99.9093 109.297 99.8379 109.201 99.746C109.105 99.6541 109.029 99.5437 108.977 99.4214C108.925 99.2991 108.899 99.1676 108.9 99.0348ZM110.665 99.0348C110.666 98.8869 110.623 98.7421 110.541 98.6187C110.46 98.4954 110.343 98.399 110.207 98.342C110.07 98.285 109.92 98.2698 109.775 98.2984C109.63 98.3271 109.497 98.3982 109.392 98.5028C109.287 98.6073 109.216 98.7407 109.188 98.8858C109.159 99.0309 109.174 99.1812 109.231 99.3177C109.288 99.4541 109.385 99.5705 109.508 99.6521C109.631 99.7337 109.776 99.7768 109.924 99.7758C110.022 99.7791 110.12 99.7622 110.212 99.7261C110.303 99.6901 110.386 99.6356 110.455 99.5661C110.525 99.4966 110.579 99.4136 110.615 99.3222C110.652 99.2308 110.668 99.133 110.665 99.0348Z" fill="white"/>
<path d="M112.808 99.2707C112.813 99.3686 112.798 99.4665 112.763 99.5582C112.729 99.6499 112.675 99.7334 112.606 99.8031C112.537 99.8729 112.455 99.9275 112.363 99.9634C112.272 99.9994 112.174 100.016 112.076 100.012C111.976 100.017 111.877 99.9969 111.786 99.954C111.695 99.9112 111.617 99.8467 111.557 99.7663V99.9975H111.302V97.9585H111.567V98.7609C111.628 98.6853 111.705 98.6249 111.794 98.5848C111.883 98.5446 111.979 98.5257 112.076 98.5296C112.174 98.5255 112.272 98.542 112.363 98.5779C112.455 98.6138 112.537 98.6684 112.606 98.7382C112.675 98.808 112.729 98.8914 112.763 98.9831C112.798 99.0748 112.813 99.1728 112.808 99.2707ZM112.544 99.2707C112.536 99.1793 112.502 99.092 112.446 99.0195C112.39 98.947 112.314 98.8924 112.228 98.8624C112.141 98.8324 112.047 98.8283 111.959 98.8505C111.87 98.8728 111.789 98.9205 111.727 98.9877C111.664 99.055 111.623 99.139 111.608 99.2294C111.592 99.3197 111.604 99.4126 111.64 99.4967C111.677 99.5808 111.737 99.6524 111.814 99.7028C111.89 99.7531 111.98 99.7801 112.072 99.7804C112.138 99.7833 112.205 99.772 112.267 99.7471C112.329 99.7223 112.386 99.6845 112.432 99.6363C112.478 99.5881 112.514 99.5305 112.537 99.4675C112.559 99.4045 112.568 99.3374 112.562 99.2707H112.544Z" fill="white"/>
<path d="M112.69 100.455L112.775 100.253C112.836 100.302 112.913 100.327 112.992 100.323C113.129 100.323 113.209 100.234 113.209 100.068V98.5439H113.469V100.064C113.475 100.127 113.466 100.191 113.445 100.251C113.423 100.311 113.388 100.365 113.343 100.41C113.298 100.455 113.244 100.49 113.184 100.512C113.124 100.533 113.06 100.542 112.997 100.536C112.889 100.541 112.781 100.513 112.69 100.455ZM113.162 98.0955C113.162 98.0728 113.166 98.0503 113.175 98.0293C113.184 98.0084 113.197 97.9895 113.213 97.9736C113.23 97.9578 113.249 97.9454 113.27 97.9371C113.291 97.9289 113.314 97.9249 113.337 97.9256C113.359 97.9243 113.382 97.9276 113.403 97.9353C113.425 97.9429 113.444 97.9548 113.461 97.9702C113.478 97.9856 113.491 98.0042 113.501 98.0249C113.51 98.0456 113.515 98.068 113.516 98.0908C113.517 98.1143 113.512 98.1377 113.504 98.1595C113.495 98.1813 113.482 98.2011 113.465 98.2175C113.448 98.2339 113.428 98.2466 113.406 98.2549C113.384 98.2631 113.36 98.2667 113.337 98.2654C113.313 98.2668 113.29 98.2632 113.268 98.2549C113.246 98.2466 113.227 98.2338 113.21 98.2173C113.194 98.2008 113.181 98.181 113.172 98.1592C113.164 98.1374 113.161 98.1141 113.162 98.0908V98.0955Z" fill="white"/>
<path d="M115.281 99.3556H114.101C114.107 99.4186 114.126 99.4798 114.156 99.5355C114.185 99.5912 114.226 99.6404 114.276 99.68C114.325 99.7196 114.382 99.7489 114.443 99.7662C114.503 99.7834 114.567 99.7883 114.63 99.7804C114.708 99.7831 114.787 99.7689 114.859 99.7388C114.931 99.7086 114.997 99.6633 115.05 99.6058L115.196 99.7757C115.088 99.8836 114.952 99.9583 114.802 99.9908C114.653 100.023 114.498 100.012 114.355 99.9592C114.212 99.906 114.087 99.8129 113.995 99.6908C113.903 99.5688 113.848 99.4229 113.837 99.2706C113.833 99.1731 113.849 99.0757 113.885 98.9847C113.92 98.8936 113.973 98.8108 114.042 98.7413C114.111 98.6718 114.193 98.6172 114.283 98.5808C114.374 98.5443 114.471 98.5269 114.569 98.5296C114.666 98.5267 114.763 98.5443 114.853 98.5811C114.943 98.618 115.025 98.6733 115.093 98.7436C115.16 98.8138 115.212 98.8974 115.246 98.989C115.279 99.0806 115.293 99.1781 115.286 99.2754C115.287 99.3022 115.285 99.329 115.281 99.3556ZM114.101 99.1668H115.045C115.045 99.0416 114.996 98.9216 114.907 98.833C114.819 98.7445 114.699 98.6948 114.573 98.6948C114.448 98.6948 114.328 98.7445 114.24 98.833C114.151 98.9216 114.101 99.0416 114.101 99.1668Z" fill="white"/>
<path d="M115.517 99.2707C115.515 99.1704 115.534 99.0707 115.572 98.978C115.61 98.8852 115.667 98.8014 115.74 98.7318C115.812 98.6622 115.898 98.6083 115.992 98.5735C116.086 98.5387 116.186 98.5238 116.287 98.5297C116.404 98.5221 116.52 98.5466 116.624 98.6007C116.728 98.6548 116.816 98.7363 116.877 98.8365L116.678 98.9686C116.635 98.903 116.576 98.8493 116.507 98.8122C116.438 98.7751 116.36 98.7559 116.282 98.7562C116.155 98.7685 116.036 98.8277 115.95 98.9224C115.864 99.0171 115.817 99.1404 115.817 99.2684C115.817 99.3963 115.864 99.5196 115.95 99.6143C116.036 99.709 116.155 99.7682 116.282 99.7805C116.36 99.7814 116.437 99.7629 116.506 99.7266C116.576 99.6904 116.635 99.6375 116.678 99.5728L116.877 99.7002C116.816 99.8009 116.729 99.8831 116.625 99.938C116.521 99.9928 116.404 100.018 116.287 100.012C116.187 100.017 116.087 100.002 115.993 99.9665C115.899 99.9314 115.813 99.8775 115.741 99.8081C115.669 99.7386 115.612 99.6551 115.574 99.5626C115.535 99.4702 115.516 99.3708 115.517 99.2707Z" fill="white"/>
<path d="M118.057 99.9127C117.964 99.9804 117.851 100.015 117.736 100.012C117.671 100.022 117.605 100.018 117.543 99.9977C117.481 99.9777 117.425 99.9432 117.378 99.8971C117.332 99.8509 117.298 99.7945 117.278 99.7323C117.258 99.6702 117.253 99.6042 117.264 99.5399V98.7375H117.013V98.5251H117.264V98.2041H117.528V98.5251H117.943V98.7375H117.528V99.5257C117.523 99.5575 117.525 99.59 117.534 99.6208C117.544 99.6516 117.56 99.6799 117.582 99.7035C117.603 99.7271 117.63 99.7455 117.66 99.7572C117.69 99.7689 117.722 99.7737 117.754 99.7712C117.828 99.7726 117.899 99.7493 117.957 99.7051L118.057 99.9127Z" fill="white"/>
<path d="M118.326 98.0906C118.326 98.0677 118.331 98.0451 118.341 98.0241C118.35 98.0032 118.363 97.9843 118.38 97.9685C118.397 97.9527 118.416 97.9403 118.438 97.9321C118.459 97.9239 118.482 97.92 118.505 97.9207C118.528 97.9194 118.55 97.9227 118.572 97.9304C118.593 97.938 118.613 97.9499 118.63 97.9653C118.646 97.9807 118.66 97.9994 118.669 98.0201C118.679 98.0408 118.684 98.0631 118.684 98.0859C118.684 98.1334 118.665 98.1791 118.632 98.2127C118.598 98.2463 118.553 98.2652 118.505 98.2652C118.457 98.2652 118.412 98.2463 118.378 98.2127C118.345 98.1791 118.326 98.1334 118.326 98.0859V98.0906ZM118.373 98.5626H118.637V100.016H118.373V98.5626Z" fill="white"/>
<path d="M120.426 98.5439L119.789 99.9977H119.52L118.883 98.5439H119.161L119.633 99.7098L120.143 98.5439H120.426Z" fill="white"/>
<path d="M121.941 99.3556H120.761C120.767 99.4186 120.786 99.4798 120.815 99.5355C120.845 99.5912 120.886 99.6404 120.936 99.68C120.985 99.7196 121.042 99.7489 121.103 99.7662C121.163 99.7834 121.227 99.7883 121.29 99.7804C121.368 99.7831 121.446 99.7689 121.519 99.7388C121.591 99.7086 121.657 99.6633 121.71 99.6058L121.852 99.7757C121.78 99.8554 121.692 99.9179 121.593 99.9588C121.494 99.9996 121.387 100.018 121.28 100.012C121.179 100.019 121.078 100.005 120.982 99.9709C120.887 99.9367 120.799 99.8831 120.726 99.8135C120.652 99.7438 120.594 99.6595 120.554 99.5661C120.515 99.4726 120.495 99.372 120.497 99.2706C120.493 99.1731 120.509 99.0757 120.544 98.9847C120.58 98.8936 120.633 98.8108 120.702 98.7413C120.77 98.6718 120.853 98.6172 120.943 98.5808C121.034 98.5443 121.131 98.5269 121.229 98.5296C121.326 98.5267 121.423 98.5443 121.513 98.5811C121.603 98.618 121.685 98.6733 121.752 98.7436C121.82 98.8138 121.872 98.8974 121.905 98.989C121.939 99.0806 121.953 99.1781 121.946 99.2754C121.947 99.3022 121.945 99.329 121.941 99.3556ZM120.761 99.1668H121.705C121.705 99.0416 121.656 98.9216 121.567 98.833C121.478 98.7445 121.358 98.6948 121.233 98.6948C121.108 98.6948 120.988 98.7445 120.899 98.833C120.811 98.9216 120.761 99.0416 120.761 99.1668Z" fill="white"/>
<path d="M117.953 54.6478C117.957 54.1029 117.835 53.5643 117.596 53.0744C117.358 52.5845 117.009 52.1564 116.577 51.8238C116.146 51.4911 115.643 51.263 115.108 51.1571C114.574 51.0512 114.022 51.0706 113.496 51.2136C112.97 51.3566 112.484 51.6194 112.077 51.9814C111.67 52.3434 111.352 52.7948 111.148 53.3003C110.944 53.8057 110.86 54.3514 110.903 54.8948C110.945 55.4381 111.112 55.9642 111.392 56.432C111.529 56.6585 111.699 56.8237 111.864 57.0645L113.917 59.7785C113.977 59.8576 114.054 59.9218 114.142 59.9661C114.231 60.0103 114.328 60.0333 114.427 60.0333C114.526 60.0333 114.624 60.0103 114.712 59.9661C114.8 59.9218 114.877 59.8576 114.937 59.7785L116.952 57.1069C117.136 56.8903 117.308 56.6634 117.467 56.4273C117.784 55.8879 117.952 55.2736 117.953 54.6478ZM114.422 56.1677C114.114 56.1686 113.812 56.078 113.556 55.9075C113.299 55.7369 113.099 55.4939 112.98 55.2094C112.861 54.9249 112.83 54.6116 112.889 54.3091C112.949 54.0066 113.097 53.7287 113.315 53.5104C113.532 53.2921 113.81 53.1432 114.112 53.0828C114.414 53.0223 114.728 53.0528 115.013 53.1706C115.297 53.2883 115.541 53.488 115.712 53.7442C115.884 54.0005 115.975 54.3018 115.975 54.6101C115.975 55.0224 115.812 55.4178 115.521 55.7098C115.23 56.0018 114.835 56.1664 114.422 56.1677Z" fill="#E6D14C"/>
<path d="M95.0797 193.827H94.4236V193.586H96.0095V193.827H95.344V195.507H95.0702L95.0797 193.827Z" fill="#263238"/>
<path d="M95.9858 194.78C95.9839 194.631 96.0265 194.484 96.1081 194.359C96.1897 194.233 96.3068 194.135 96.4443 194.076C96.5818 194.018 96.7337 194.001 96.8807 194.029C97.0277 194.056 97.1631 194.127 97.2699 194.232C97.3766 194.337 97.4499 194.471 97.4803 194.617C97.5108 194.764 97.497 194.916 97.4409 195.054C97.3847 195.193 97.2887 195.312 97.1649 195.396C97.0412 195.48 96.8953 195.525 96.7457 195.526C96.6457 195.531 96.5457 195.516 96.4521 195.48C96.3584 195.445 96.2732 195.39 96.2017 195.32C96.1302 195.25 96.0741 195.166 96.037 195.073C95.9998 194.98 95.9824 194.88 95.9858 194.78ZM97.2319 194.78C97.2319 194.651 97.1804 194.526 97.0888 194.435C96.9972 194.343 96.8729 194.292 96.7433 194.292C96.6138 194.292 96.4895 194.343 96.3979 194.435C96.3063 194.526 96.2548 194.651 96.2548 194.78C96.2548 194.91 96.3063 195.034 96.3979 195.126C96.4895 195.217 96.6138 195.269 96.7433 195.269C96.8729 195.269 96.9972 195.217 97.0888 195.126C97.1804 195.034 97.2319 194.91 97.2319 194.78Z" fill="#263238"/>
<path d="M98.6811 195.408C98.5918 195.48 98.4794 195.516 98.3649 195.512C98.3007 195.521 98.2352 195.515 98.1735 195.495C98.1119 195.475 98.0559 195.44 98.01 195.394C97.9641 195.349 97.9296 195.293 97.9093 195.231C97.889 195.169 97.8833 195.104 97.8929 195.04V194.242H97.6475V194.025H97.8929V193.708H98.1761V194.025H98.5915V194.242H98.1761V195.03C98.171 195.062 98.1732 195.094 98.1825 195.125C98.1917 195.156 98.2079 195.184 98.2297 195.208C98.2515 195.232 98.2785 195.25 98.3084 195.262C98.3384 195.273 98.3706 195.278 98.4027 195.276C98.4776 195.275 98.5504 195.25 98.6103 195.205L98.6811 195.408Z" fill="#263238"/>
<path d="M100.154 194.629V195.507H99.9036V195.318C99.8478 195.389 99.7756 195.444 99.6934 195.481C99.6111 195.517 99.5213 195.532 99.4316 195.526C99.1012 195.526 98.8936 195.351 98.8936 195.096C98.8936 194.842 99.0446 194.672 99.4741 194.672H99.8942V194.62C99.8942 194.398 99.7667 194.266 99.5024 194.266C99.3308 194.26 99.1631 194.317 99.0304 194.426L98.9172 194.228C99.0908 194.097 99.3042 194.031 99.5213 194.039C99.6039 194.025 99.6886 194.03 99.7689 194.054C99.8491 194.078 99.9228 194.12 99.984 194.177C100.045 194.234 100.093 194.305 100.122 194.383C100.151 194.462 100.162 194.546 100.154 194.629ZM99.8895 195.063V194.86H99.4836C99.224 194.86 99.1484 194.964 99.1484 195.087C99.1484 195.21 99.2664 195.323 99.4694 195.323C99.5579 195.33 99.6461 195.308 99.7216 195.262C99.7971 195.215 99.8558 195.146 99.8895 195.063Z" fill="#263238"/>
<path d="M100.64 193.473H100.904V195.507H100.64V193.473Z" fill="#263238"/>
<path d="M103.514 193.473V195.507H103.264V195.276C103.205 195.356 103.126 195.421 103.036 195.465C102.945 195.509 102.845 195.53 102.745 195.526C102.558 195.511 102.384 195.426 102.256 195.288C102.129 195.151 102.059 194.97 102.059 194.782C102.059 194.595 102.129 194.414 102.256 194.277C102.384 194.139 102.558 194.054 102.745 194.039C102.843 194.035 102.94 194.054 103.029 194.095C103.117 194.136 103.195 194.198 103.255 194.275V193.473H103.514ZM103.255 194.78C103.247 194.689 103.212 194.602 103.155 194.53C103.099 194.459 103.023 194.405 102.936 194.375C102.849 194.346 102.756 194.343 102.667 194.365C102.579 194.388 102.499 194.436 102.437 194.504C102.375 194.571 102.334 194.655 102.319 194.745C102.304 194.835 102.316 194.928 102.352 195.012C102.389 195.096 102.449 195.167 102.526 195.217C102.602 195.267 102.691 195.294 102.783 195.295C102.849 195.295 102.914 195.281 102.974 195.255C103.034 195.229 103.088 195.19 103.133 195.142C103.177 195.093 103.211 195.036 103.232 194.974C103.253 194.912 103.261 194.846 103.255 194.78Z" fill="#263238"/>
<path d="M103.968 193.605C103.968 193.581 103.972 193.558 103.981 193.537C103.99 193.515 104.004 193.496 104.02 193.48C104.037 193.463 104.057 193.451 104.079 193.442C104.1 193.434 104.124 193.429 104.147 193.43C104.172 193.426 104.198 193.427 104.222 193.434C104.246 193.441 104.269 193.453 104.288 193.469C104.308 193.486 104.323 193.506 104.334 193.529C104.345 193.552 104.35 193.577 104.35 193.602C104.35 193.628 104.345 193.653 104.334 193.676C104.323 193.699 104.308 193.719 104.288 193.736C104.269 193.752 104.246 193.764 104.222 193.771C104.198 193.777 104.172 193.779 104.147 193.775C104.124 193.775 104.101 193.771 104.08 193.763C104.058 193.755 104.039 193.743 104.022 193.727C104.005 193.711 103.992 193.692 103.983 193.671C103.973 193.65 103.968 193.628 103.968 193.605ZM104.015 194.053H104.279V195.507H104.015V194.053Z" fill="#263238"/>
<path d="M104.595 195.356L104.708 195.144C104.86 195.243 105.037 195.296 105.218 195.295C105.464 195.295 105.563 195.224 105.563 195.101C105.563 194.771 104.619 195.054 104.619 194.478C104.619 194.214 104.855 194.039 105.228 194.039C105.412 194.037 105.594 194.083 105.756 194.171L105.643 194.379C105.517 194.301 105.371 194.262 105.223 194.266C104.992 194.266 104.883 194.351 104.883 194.464C104.883 194.808 105.827 194.53 105.827 195.092C105.827 195.356 105.586 195.526 105.199 195.526C104.986 195.53 104.775 195.471 104.595 195.356Z" fill="#263238"/>
<path d="M106.974 195.408C106.883 195.481 106.769 195.518 106.653 195.512C106.589 195.521 106.523 195.515 106.462 195.495C106.4 195.475 106.344 195.44 106.298 195.394C106.252 195.349 106.218 195.293 106.197 195.231C106.177 195.169 106.172 195.104 106.181 195.04V194.242H105.931V194.025H106.2V193.708H106.464V194.025H106.88V194.242H106.464V195.03C106.459 195.062 106.461 195.094 106.471 195.125C106.48 195.156 106.496 195.184 106.518 195.208C106.54 195.232 106.567 195.25 106.597 195.262C106.627 195.273 106.659 195.278 106.691 195.276C106.764 195.275 106.836 195.25 106.894 195.205L106.974 195.408Z" fill="#263238"/>
<path d="M108.447 194.629V195.507H108.197V195.318C108.14 195.388 108.068 195.444 107.986 195.48C107.904 195.516 107.814 195.532 107.725 195.526C107.399 195.526 107.187 195.351 107.187 195.096C107.187 194.841 107.338 194.672 107.772 194.672H108.192V194.62C108.192 194.398 108.06 194.266 107.8 194.266C107.629 194.262 107.462 194.319 107.328 194.426L107.22 194.228C107.393 194.097 107.607 194.031 107.824 194.039C107.906 194.026 107.989 194.033 108.068 194.057C108.147 194.082 108.22 194.124 108.28 194.181C108.34 194.238 108.386 194.308 108.415 194.386C108.444 194.463 108.455 194.547 108.447 194.629ZM108.182 195.063V194.86H107.777C107.512 194.86 107.441 194.964 107.441 195.087C107.441 195.21 107.559 195.323 107.762 195.323C107.851 195.33 107.939 195.308 108.015 195.261C108.09 195.215 108.149 195.145 108.182 195.063Z" fill="#263238"/>
<path d="M110.311 194.671V195.507H110.052V194.7C110.052 194.416 109.905 194.275 109.655 194.275C109.592 194.269 109.528 194.277 109.468 194.299C109.408 194.32 109.353 194.355 109.308 194.4C109.263 194.445 109.229 194.5 109.207 194.559C109.185 194.619 109.177 194.683 109.183 194.747V195.492H108.919V194.039H109.169V194.261C109.232 194.182 109.312 194.119 109.404 194.078C109.496 194.037 109.597 194.019 109.698 194.025C109.783 194.016 109.87 194.026 109.951 194.056C110.032 194.086 110.104 194.134 110.164 194.197C110.223 194.259 110.267 194.334 110.293 194.417C110.318 194.499 110.325 194.586 110.311 194.671Z" fill="#263238"/>
<path d="M110.674 194.78C110.672 194.68 110.691 194.58 110.729 194.487C110.768 194.394 110.825 194.311 110.897 194.241C110.969 194.171 111.055 194.117 111.149 194.083C111.243 194.048 111.344 194.033 111.444 194.039C111.562 194.032 111.679 194.058 111.784 194.113C111.889 194.168 111.977 194.25 112.039 194.35L111.836 194.478C111.792 194.413 111.733 194.36 111.664 194.324C111.594 194.288 111.517 194.269 111.439 194.27C111.312 194.282 111.194 194.342 111.108 194.436C111.022 194.531 110.974 194.654 110.974 194.782C110.974 194.91 111.022 195.034 111.108 195.128C111.194 195.223 111.312 195.282 111.439 195.294C111.517 195.295 111.594 195.277 111.664 195.241C111.733 195.204 111.792 195.151 111.836 195.087L112.039 195.209C111.977 195.311 111.889 195.393 111.785 195.449C111.68 195.505 111.562 195.531 111.444 195.526C111.343 195.531 111.243 195.515 111.149 195.48C111.055 195.445 110.969 195.39 110.897 195.32C110.825 195.25 110.768 195.166 110.729 195.073C110.691 194.98 110.672 194.88 110.674 194.78Z" fill="#263238"/>
<path d="M113.662 194.87H112.482C112.488 194.933 112.507 194.994 112.537 195.049C112.567 195.105 112.607 195.154 112.657 195.194C112.706 195.234 112.763 195.263 112.824 195.28C112.885 195.297 112.948 195.302 113.011 195.294C113.09 195.297 113.168 195.283 113.24 195.253C113.313 195.223 113.378 195.177 113.431 195.12L113.577 195.29C113.504 195.368 113.415 195.43 113.315 195.471C113.216 195.511 113.109 195.53 113.002 195.526C112.9 195.533 112.798 195.519 112.702 195.484C112.606 195.45 112.519 195.396 112.445 195.326C112.371 195.256 112.313 195.171 112.274 195.077C112.235 194.983 112.216 194.882 112.218 194.78C112.214 194.682 112.23 194.585 112.266 194.494C112.301 194.403 112.354 194.32 112.423 194.251C112.492 194.181 112.574 194.126 112.664 194.09C112.755 194.054 112.852 194.036 112.95 194.039C113.048 194.036 113.145 194.054 113.236 194.091C113.326 194.128 113.408 194.184 113.475 194.254C113.543 194.325 113.595 194.409 113.628 194.502C113.661 194.594 113.674 194.692 113.667 194.789C113.668 194.816 113.666 194.843 113.662 194.87ZM112.482 194.681H113.426C113.426 194.556 113.377 194.436 113.288 194.347C113.2 194.259 113.08 194.209 112.954 194.209C112.829 194.209 112.709 194.259 112.621 194.347C112.532 194.436 112.482 194.556 112.482 194.681Z" fill="#263238"/>
<path d="M96.8073 197.664V202.242H95.7453V198.514H94.8296V197.664H96.8073Z" fill="#263238"/>
<path d="M98.8416 201.657C98.8315 201.884 98.7719 202.106 98.6669 202.308L98.2894 203.252H97.6427L97.9306 202.214C97.8212 202.169 97.7285 202.091 97.665 201.992C97.6016 201.892 97.5708 201.775 97.5766 201.657C97.5766 201.489 97.6433 201.328 97.7619 201.21C97.8805 201.091 98.0414 201.024 98.2091 201.024C98.3769 201.024 98.5377 201.091 98.6563 201.21C98.7749 201.328 98.8416 201.489 98.8416 201.657Z" fill="#263238"/>
<path d="M101.008 197.664V202.242H99.9223V198.514H99.0066V197.664H101.008Z" fill="#263238"/>
<path d="M101.782 199.953C101.782 198.443 102.617 197.593 103.746 197.593C104.874 197.593 105.709 198.452 105.709 199.953C105.709 201.454 104.878 202.313 103.746 202.313C102.613 202.313 101.782 201.464 101.782 199.953ZM104.642 199.953C104.642 198.915 104.274 198.481 103.746 198.481C103.217 198.481 102.853 198.915 102.853 199.953C102.853 200.992 103.222 201.426 103.746 201.426C104.269 201.426 104.642 200.996 104.642 199.953Z" fill="#263238"/>
<path d="M106.224 199.953C106.224 198.443 107.064 197.593 108.192 197.593C109.32 197.593 110.155 198.452 110.155 199.953C110.155 201.454 109.325 202.313 108.192 202.313C107.059 202.313 106.224 201.464 106.224 199.953ZM109.089 199.953C109.089 198.915 108.721 198.481 108.192 198.481C107.663 198.481 107.3 198.915 107.3 199.953C107.3 200.992 107.668 201.426 108.192 201.426C108.716 201.426 109.089 200.996 109.089 199.953Z" fill="#263238"/>
<path d="M118.689 200.227V202.243H117.67V200.388C117.67 199.816 117.415 199.552 116.999 199.552C116.584 199.552 116.221 199.849 116.221 200.496V202.261H115.201V200.406C115.201 199.835 114.96 199.571 114.536 199.571C114.111 199.571 113.761 199.868 113.761 200.515V202.28H112.742V198.712H113.714V199.118C113.853 198.962 114.024 198.84 114.216 198.758C114.408 198.676 114.615 198.638 114.823 198.646C115.05 198.634 115.275 198.681 115.477 198.782C115.68 198.883 115.853 199.034 115.98 199.222C116.134 199.036 116.328 198.887 116.548 198.787C116.768 198.687 117.008 198.639 117.25 198.646C118.09 198.669 118.689 199.156 118.689 200.227Z" fill="#263238"/>
<path d="M92.0137 198.198C92.513 196.074 91.196 193.947 89.072 193.448C86.9481 192.949 84.8215 194.266 84.3221 196.39C83.8228 198.514 85.1398 200.64 87.2638 201.139C89.3877 201.639 91.5144 200.322 92.0137 198.198Z" fill="#E6D14C"/>
<path d="M86.5743 198.022C86.9103 197.974 87.2497 197.954 87.5891 197.961C88.2357 197.961 89.1609 197.928 90.2653 197.919L90.1851 198.093C89.8689 197.735 89.5337 197.338 89.175 196.927L89.1137 196.857L89.175 196.776L90.1709 195.535L90.2653 195.733H89.7933H86.5507L86.664 195.625C86.664 196.824 86.6357 197.834 86.6168 198.542C86.6246 198.916 86.6025 199.29 86.5507 199.66C86.5019 199.289 86.4798 198.916 86.4846 198.542C86.4846 197.834 86.4516 196.824 86.4421 195.625V195.516H86.5507H89.7933H90.4966L90.3361 195.714L89.3308 196.956V196.805L90.322 197.985L90.473 198.159H90.2417C89.1373 198.159 88.2121 198.131 87.5655 198.117C87.233 198.114 86.9014 198.082 86.5743 198.022Z" fill="#FAFAFA"/>
<path d="M152.088 190.561H140.146C139.539 190.561 138.957 190.802 138.527 191.231C138.098 191.66 137.857 192.243 137.857 192.85V202.252C137.858 202.858 138.1 203.439 138.529 203.868C138.958 204.296 139.54 204.536 140.146 204.536H140.448V206.778L143.049 204.536H152.088C152.694 204.536 153.276 204.296 153.705 203.868C154.134 203.439 154.376 202.858 154.377 202.252V192.85C154.377 192.243 154.136 191.66 153.706 191.231C153.277 190.802 152.695 190.561 152.088 190.561Z" fill="#E6D14C"/>
<path d="M141.284 194.874V199.698C141.284 199.748 141.304 199.796 141.339 199.832C141.374 199.867 141.422 199.887 141.473 199.887H151.583C151.608 199.886 151.632 199.881 151.655 199.871C151.677 199.861 151.698 199.846 151.715 199.828C151.732 199.81 151.745 199.789 151.754 199.766C151.763 199.743 151.767 199.718 151.767 199.693L151.743 197.928C151.744 197.889 151.732 197.851 151.71 197.82L150.256 195.88C150.24 195.856 150.218 195.837 150.192 195.824C150.167 195.811 150.139 195.804 150.11 195.804H148.439C148.39 195.804 148.343 195.785 148.307 195.751C148.272 195.716 148.252 195.669 148.25 195.62V194.889C148.251 194.864 148.247 194.839 148.238 194.817C148.229 194.794 148.215 194.773 148.198 194.755C148.181 194.738 148.161 194.724 148.138 194.714C148.115 194.705 148.091 194.7 148.066 194.7H141.458C141.413 194.703 141.371 194.722 141.338 194.755C141.306 194.787 141.287 194.829 141.284 194.874Z" fill="#FAFAFA"/>
<path d="M148.723 196.215V197.768C148.723 197.797 148.734 197.824 148.754 197.845C148.775 197.865 148.802 197.876 148.831 197.876L151.064 197.839C151.083 197.838 151.102 197.832 151.118 197.821C151.134 197.811 151.148 197.796 151.156 197.779C151.165 197.761 151.169 197.742 151.167 197.723C151.166 197.703 151.16 197.685 151.149 197.669L150.096 196.121C150.087 196.105 150.073 196.093 150.058 196.085C150.042 196.076 150.024 196.072 150.006 196.073L148.817 196.106C148.79 196.109 148.765 196.121 148.748 196.142C148.73 196.162 148.721 196.188 148.723 196.215Z" fill="#E6D14C"/>
<path d="M151.97 200.033H141.081V200.368H151.97V200.033Z" fill="#FAFAFA"/>
<path d="M144.682 200.161C144.683 200.375 144.62 200.584 144.502 200.763C144.384 200.941 144.215 201.081 144.017 201.163C143.82 201.245 143.602 201.267 143.392 201.226C143.182 201.184 142.989 201.081 142.837 200.93C142.686 200.778 142.583 200.585 142.541 200.375C142.499 200.165 142.521 199.947 142.604 199.75C142.686 199.552 142.825 199.383 143.004 199.265C143.182 199.146 143.392 199.084 143.606 199.084C143.892 199.084 144.165 199.198 144.367 199.4C144.569 199.601 144.682 199.875 144.682 200.161Z" fill="#E6D14C"/>
<path d="M144.238 200.161C144.239 200.287 144.203 200.411 144.133 200.517C144.063 200.622 143.964 200.704 143.847 200.753C143.731 200.802 143.602 200.815 143.478 200.791C143.354 200.766 143.24 200.705 143.151 200.616C143.061 200.527 143.001 200.413 142.976 200.289C142.952 200.165 142.965 200.036 143.014 199.919C143.062 199.803 143.145 199.703 143.25 199.634C143.356 199.564 143.48 199.527 143.606 199.528C143.774 199.528 143.935 199.595 144.053 199.714C144.172 199.832 144.238 199.993 144.238 200.161Z" fill="#FAFAFA"/>
<path d="M148.246 199.887C148.217 199.887 148.194 198.721 148.194 197.286C148.194 195.851 148.194 194.686 148.246 194.686C148.298 194.686 148.293 195.851 148.293 197.286C148.293 198.721 148.269 199.887 148.246 199.887Z" fill="#E6D14C"/>
<path d="M150.568 200.161C150.568 200.373 150.505 200.582 150.387 200.759C150.268 200.935 150.1 201.073 149.904 201.155C149.707 201.236 149.491 201.258 149.282 201.216C149.073 201.175 148.881 201.072 148.731 200.922C148.58 200.771 148.478 200.579 148.436 200.371C148.395 200.162 148.416 199.945 148.498 199.749C148.579 199.552 148.717 199.384 148.894 199.266C149.071 199.148 149.279 199.084 149.492 199.084C149.777 199.084 150.051 199.198 150.253 199.4C150.455 199.601 150.568 199.875 150.568 200.161Z" fill="#E6D14C"/>
<path d="M150.096 200.161C150.097 200.287 150.06 200.411 149.991 200.516C149.921 200.621 149.822 200.704 149.706 200.753C149.589 200.802 149.461 200.815 149.337 200.791C149.213 200.767 149.099 200.707 149.01 200.618C148.92 200.529 148.859 200.415 148.834 200.292C148.809 200.168 148.821 200.039 148.87 199.923C148.918 199.806 148.999 199.706 149.104 199.636C149.209 199.566 149.332 199.528 149.459 199.528C149.627 199.528 149.788 199.595 149.908 199.713C150.027 199.832 150.095 199.993 150.096 200.161Z" fill="#FAFAFA"/>
<path d="M149.478 198.173C149.478 198.202 149.322 198.221 149.133 198.221C148.944 198.221 148.789 198.221 148.789 198.173C148.789 198.126 148.944 198.122 149.133 198.122C149.322 198.122 149.478 198.145 149.478 198.173Z" fill="#E6D14C"/>
<path d="M262.121 119.005C262.121 119.005 269.734 120.289 270.348 120.454C270.961 120.62 273.373 121.762 273.496 122.498C273.559 123.465 273.559 124.434 273.496 125.401C273.496 125.401 273.057 125.755 272.788 125.047C272.607 124.359 272.529 123.648 272.557 122.937L271.207 122.418L271.943 123.725L272.066 126.789C272.066 126.789 271.122 126.704 270.938 125.972C270.822 125.462 270.762 124.942 270.758 124.419L269.776 123.588L270.513 124.584L270.758 126.789C270.758 126.789 270.041 127.025 269.814 126.534C269.648 125.897 269.566 125.242 269.569 124.584L266.793 123.612L264.957 124.636L261.526 122.72L262.121 119.005Z" fill="#FFBE9D"/>
<path d="M235.462 100.187C235.5 100.338 244.638 112.931 244.638 112.931L262.998 118.642L262.163 125.538L239.663 121.006L231.677 111.84L235.462 100.187Z" fill="#E6D14C"/>
<g opacity="0.2">
<path opacity="0.2" d="M235.462 100.187C235.5 100.338 244.638 112.931 244.638 112.931L262.998 118.642L262.163 125.538L239.663 121.006L231.677 111.84L235.462 100.187Z" fill="black"/>
</g>
<path d="M203.479 117.504H165.964C165.169 117.504 164.525 118.149 164.525 118.944V123.376C164.525 124.171 165.169 124.816 165.964 124.816H203.479C204.274 124.816 204.919 124.171 204.919 123.376V118.944C204.919 118.149 204.274 117.504 203.479 117.504Z" fill="#F5F5F5"/>
<path d="M203.484 124.815C203.484 124.815 203.564 124.815 203.72 124.782C204.02 124.727 204.294 124.576 204.502 124.353C204.709 124.129 204.839 123.844 204.871 123.541C204.871 123.097 204.871 122.569 204.871 121.983C204.871 121.398 204.871 120.742 204.871 120.029C204.871 119.671 204.871 119.298 204.871 118.911C204.865 118.719 204.82 118.531 204.739 118.357C204.658 118.184 204.542 118.028 204.399 117.901C204.244 117.769 204.062 117.674 203.866 117.622C203.657 117.577 203.442 117.562 203.229 117.58H201.851H198.853L165.998 117.617C165.814 117.617 165.632 117.655 165.464 117.729C165.296 117.803 165.145 117.911 165.021 118.047C164.898 118.184 164.805 118.345 164.746 118.519C164.688 118.694 164.665 118.878 164.681 119.062C164.681 119.855 164.681 120.643 164.681 121.422V123.192C164.672 123.372 164.688 123.553 164.728 123.73C164.798 123.985 164.943 124.213 165.144 124.386C165.345 124.558 165.593 124.667 165.856 124.697C166.021 124.697 166.224 124.697 166.413 124.697H175.135L189.904 124.726L199.864 124.763L202.573 124.787H203.276H203.517H203.276H202.573L199.864 124.811L189.904 124.848L175.135 124.877H166.38C166.186 124.877 166.007 124.877 165.795 124.877C165.589 124.852 165.39 124.788 165.209 124.688C165.029 124.588 164.87 124.453 164.742 124.291C164.614 124.129 164.519 123.943 164.464 123.744C164.413 123.547 164.394 123.343 164.407 123.14V121.389C164.407 120.61 164.407 119.822 164.407 119.029C164.394 118.815 164.424 118.6 164.495 118.398C164.565 118.195 164.675 118.009 164.818 117.849C164.964 117.687 165.142 117.558 165.341 117.47C165.541 117.383 165.756 117.338 165.974 117.339L198.83 117.377H203.205C203.432 117.367 203.659 117.386 203.88 117.433C204.096 117.492 204.296 117.598 204.466 117.745C204.625 117.883 204.754 118.053 204.844 118.244C204.935 118.435 204.984 118.643 204.989 118.854C204.989 119.241 204.989 119.619 204.989 119.977C204.989 120.69 204.989 121.341 204.989 121.931C204.989 122.521 204.989 123.036 204.966 123.498C204.914 123.89 204.708 124.245 204.395 124.485C204.204 124.628 203.98 124.721 203.743 124.754C203.661 124.788 203.573 124.809 203.484 124.815Z" fill="#263238"/>
<path d="M305.343 218.241C315.99 217.729 324.206 208.684 323.695 198.037C323.184 187.39 314.138 179.173 303.491 179.685C292.844 180.196 284.628 189.242 285.139 199.889C285.651 210.536 294.696 218.752 305.343 218.241Z" fill="#263238"/>
<path d="M285.126 198.636C285.126 198.636 285.126 198.669 285.126 198.688C285.083 203.787 287.059 208.695 290.623 212.341C294.187 215.987 299.049 218.075 304.147 218.148C309.245 218.222 314.165 216.275 317.832 212.734C321.5 209.192 323.617 204.343 323.721 199.245C323.721 199.245 323.721 199.212 323.721 199.193L285.126 198.636Z" fill="#263238"/>
<path d="M290.87 198.768C290.831 201.448 291.588 204.08 293.044 206.33C294.501 208.579 296.592 210.347 299.053 211.408C301.514 212.47 304.235 212.778 306.871 212.293C309.507 211.808 311.94 210.552 313.862 208.685C315.785 206.817 317.11 204.421 317.671 201.8C318.232 199.18 318.003 196.451 317.013 193.96C316.023 191.47 314.317 189.328 312.11 187.807C309.903 186.286 307.295 185.454 304.615 185.415C301.021 185.364 297.555 186.741 294.977 189.246C292.4 191.75 290.922 195.175 290.87 198.768Z" fill="#FAFAFA"/>
<path d="M304.615 185.415C301.021 185.364 297.555 186.741 294.977 189.246C292.399 191.75 290.922 195.175 290.87 198.768L317.967 199.16C318.019 195.567 316.641 192.1 314.137 189.523C311.633 186.945 308.208 185.468 304.615 185.415Z" fill="#E0E0E0"/>
<path d="M296.166 198.844C296.142 200.477 296.602 202.08 297.49 203.451C298.377 204.821 299.65 205.899 301.15 206.545C302.649 207.192 304.306 207.38 305.912 207.085C307.518 206.79 309.001 206.025 310.172 204.888C311.343 203.75 312.151 202.29 312.493 200.694C312.835 199.097 312.695 197.435 312.092 195.917C311.489 194.4 310.45 193.095 309.105 192.169C307.761 191.242 306.172 190.735 304.539 190.711C302.351 190.68 300.239 191.519 298.669 193.044C297.099 194.569 296.198 196.655 296.166 198.844Z" fill="#263238"/>
<path d="M295.26 170.666C295.26 170.666 315.017 164.69 323.188 186.157L281.841 198.967L295.26 170.666Z" fill="#E6D14C"/>
<path d="M186.268 218.242C196.914 217.731 205.131 208.685 204.619 198.038C204.108 187.391 195.062 179.175 184.416 179.686C173.769 180.198 165.552 189.243 166.064 199.89C166.575 210.537 175.621 218.753 186.268 218.242Z" fill="#263238"/>
<path d="M166.045 198.636C166.045 198.636 166.045 198.669 166.045 198.688C166.002 203.787 167.978 208.695 171.542 212.341C175.106 215.987 179.968 218.075 185.066 218.148C190.164 218.222 195.084 216.275 198.751 212.734C202.419 209.192 204.536 204.343 204.64 199.245V199.184L166.045 198.636Z" fill="#263238"/>
<path d="M171.808 198.768C171.769 201.448 172.526 204.08 173.982 206.33C175.439 208.579 177.53 210.347 179.991 211.408C182.452 212.47 185.173 212.778 187.809 212.293C190.445 211.808 192.878 210.552 194.8 208.685C196.723 206.817 198.048 204.421 198.609 201.8C199.17 199.18 198.941 196.451 197.951 193.96C196.961 191.47 195.255 189.328 193.048 187.807C190.841 186.286 188.233 185.454 185.553 185.415C181.959 185.364 178.493 186.741 175.915 189.246C173.338 191.75 171.86 195.175 171.808 198.768Z" fill="#FAFAFA"/>
<path d="M185.534 185.416C181.944 185.369 178.482 186.749 175.908 189.253C173.335 191.756 171.86 195.179 171.808 198.769L198.905 199.16C198.931 197.38 198.605 195.611 197.947 193.956C197.289 192.302 196.311 190.793 195.069 189.516C193.827 188.24 192.345 187.22 190.709 186.517C189.073 185.813 187.314 185.439 185.534 185.416Z" fill="#E0E0E0"/>
<path d="M177.085 198.844C177.061 200.477 177.521 202.08 178.408 203.451C179.296 204.821 180.569 205.899 182.069 206.545C183.568 207.192 185.225 207.38 186.831 207.085C188.437 206.79 189.92 206.025 191.091 204.888C192.262 203.75 193.07 202.29 193.412 200.694C193.753 199.097 193.614 197.435 193.011 195.917C192.408 194.4 191.369 193.095 190.024 192.169C188.68 191.242 187.091 190.735 185.458 190.711C183.269 190.68 181.158 191.519 179.588 193.044C178.017 194.569 177.117 196.655 177.085 198.844Z" fill="#263238"/>
<path d="M212.792 191.216C212.683 191.273 202.634 189.664 202.634 189.664C202.091 190.373 201.399 190.955 200.608 191.369C199.816 191.783 198.944 192.019 198.051 192.061C193.709 192.269 189.465 192.463 185.779 192.628C184.132 192.701 182.581 193.425 181.467 194.639C180.352 195.854 179.764 197.461 179.832 199.108C179.898 200.672 180.55 202.153 181.658 203.258C182.766 204.364 184.249 205.012 185.812 205.074L207.208 205.919C210.724 206.056 215.397 203.923 217.592 201.171L212.792 191.216Z" fill="#455A64"/>
<path d="M160.282 182.664C160.282 182.664 159.366 163.855 177.042 159.937V157.525H238.959V163.312C238.959 163.312 229.873 174.258 232.823 183.344C235.773 192.43 236.717 193.359 236.717 193.359H271.957C274.738 189.451 276.288 184.801 276.408 180.006C276.597 172.03 273.283 158.394 270.805 149.676C268.568 141.723 267.152 135.096 267.152 135.096L277.725 131.57C277.725 131.57 297.289 157.176 298.087 158.592C298.885 160.008 301.603 163.387 300.966 170.741C300.329 178.095 282.728 200.779 278.112 203.337C273.496 205.896 269.323 206.056 265.165 206.693C261.559 207.25 234.881 206.882 227.9 206.774C225.475 206.758 223.096 206.099 221.009 204.862C218.923 203.597 217.356 201.501 215.624 198.065L211.928 190.872L160.282 182.664Z" fill="#E6D14C"/>
<path d="M165.021 181.371L157.223 193.586C156.992 193.925 156.877 194.329 156.896 194.739C156.915 195.149 157.067 195.541 157.329 195.857C157.59 196.172 157.948 196.394 158.347 196.489C158.746 196.583 159.165 196.545 159.541 196.38C160.511 195.946 161.398 195.346 162.16 194.605C165.724 191.212 172.072 182.272 172.072 182.272L165.021 181.371Z" fill="#455A64"/>
<path d="M220.948 183.57C220.948 183.57 220.948 183.508 220.995 183.39L221.151 182.876C221.339 182.216 221.476 181.542 221.562 180.861C221.823 178.339 221.406 175.794 220.353 173.488C219.645 171.897 218.674 170.436 217.479 169.169C216.107 167.722 214.513 166.502 212.759 165.554C210.814 164.504 208.733 163.728 206.576 163.25C204.249 162.748 201.875 162.503 199.496 162.519C197.127 162.536 194.761 162.711 192.416 163.043C190.131 163.349 187.941 163.727 185.874 164.199C182.203 164.978 178.666 166.287 175.372 168.084C173.16 169.311 171.139 170.855 169.373 172.667C168.749 173.309 168.301 173.842 168.004 174.205L167.669 174.625C167.633 174.675 167.592 174.721 167.546 174.762C168.067 173.992 168.654 173.268 169.302 172.601C171.053 170.755 173.07 169.181 175.287 167.932C178.587 166.103 182.138 164.771 185.826 163.977C187.894 163.505 190.074 163.113 192.383 162.802C194.747 162.467 197.131 162.291 199.519 162.273C201.912 162.257 204.299 162.506 206.637 163.014C208.816 163.509 210.916 164.303 212.877 165.374C214.656 166.336 216.27 167.575 217.658 169.046C218.862 170.335 219.837 171.82 220.542 173.436C221.59 175.773 221.985 178.35 221.684 180.894C221.585 181.578 221.427 182.252 221.212 182.909C221.137 183.126 221.08 183.291 221.033 183.419C221.009 183.472 220.981 183.522 220.948 183.57Z" fill="#263238"/>
<path d="M217.384 179.36C217.356 179.36 217.483 179.063 217.616 178.524C217.792 177.75 217.816 176.948 217.686 176.164C217.503 175.012 217.112 173.903 216.535 172.889C216.208 172.282 215.825 171.707 215.392 171.171C214.939 170.587 214.425 170.054 213.858 169.58C212.754 168.671 211.511 167.944 210.177 167.428C209.085 167 207.953 166.683 206.797 166.484C206.016 166.352 205.228 166.262 204.437 166.215C204.147 166.211 203.857 166.189 203.569 166.149C203.644 166.137 203.72 166.137 203.795 166.149C203.942 166.149 204.159 166.149 204.442 166.149C205.232 166.16 206.021 166.225 206.802 166.342C207.976 166.511 209.128 166.807 210.238 167.225C211.607 167.74 212.882 168.475 214.014 169.401C214.592 169.887 215.117 170.433 215.581 171.029C216.015 171.581 216.399 172.17 216.728 172.79C217.312 173.828 217.694 174.969 217.852 176.15C217.969 176.948 217.919 177.761 217.705 178.539C217.649 178.748 217.574 178.952 217.479 179.148C217.457 179.222 217.426 179.294 217.384 179.36Z" fill="#F5F5F5"/>
<g opacity="0.4">
<path opacity="0.4" d="M205.259 162.868C208.591 163.477 211.764 164.762 214.581 166.644C217.413 168.524 219.594 171.235 220.825 174.404C222.062 177.585 221.878 181.8 220.575 184.434L224.95 184.797C226.423 179.884 224.823 173.856 221.283 170.009C219.257 167.766 216.786 165.971 214.027 164.738C211.267 163.505 208.281 162.862 205.259 162.849" fill="black"/>
</g>
<path d="M203.862 124.447H165.587C163.35 124.447 161.537 126.26 161.537 128.497V153.489C161.537 155.726 163.35 157.539 165.587 157.539H203.862C206.098 157.539 207.911 155.726 207.911 153.489V128.497C207.911 126.26 206.098 124.447 203.862 124.447Z" fill="#455A64"/>
<path d="M207.911 131.829C207.911 131.9 197.485 131.952 184.627 131.952C171.77 131.952 161.339 131.9 161.339 131.829C161.339 131.758 171.761 131.707 184.627 131.707C197.494 131.707 207.911 131.763 207.911 131.829Z" fill="#263238"/>
<path d="M238.931 159.729C238.931 159.795 225.012 159.852 207.85 159.852C190.688 159.852 176.769 159.795 176.769 159.729C176.769 159.663 190.683 159.606 207.85 159.606C225.017 159.606 238.931 159.663 238.931 159.729Z" fill="#263238"/>
<path d="M238.959 157.539C239.59 156.74 239.98 155.777 240.083 154.764C240.177 153.211 239.469 151.267 237.794 151.267H216.412C214.748 151.267 213.153 151.927 211.976 153.104C210.8 154.28 210.139 155.876 210.139 157.539H238.959Z" fill="#455A64"/>
<path d="M267.152 135.095L263.433 127.341C262.936 126.276 262.854 125.064 263.204 123.943C263.553 122.821 264.308 121.87 265.321 121.275L276.441 114.644C277.021 114.295 277.685 114.11 278.362 114.11H280.764L281.708 129.785L278.008 131.216L280.368 135.029L267.152 135.095Z" fill="#E6D14C"/>
<path d="M280.797 114.696C280.797 114.696 284.602 115.569 285.078 121.431C285.555 127.293 281.722 129.125 281.722 129.125L280.797 114.696Z" fill="#EBEBEB"/>
<path d="M268.45 124.301C268.45 124.301 260.761 127.945 259.822 128.549C259.171 128.964 258.614 129.691 259.123 130.97C259.992 133.146 263.588 131.098 263.588 131.098L270.749 127.52C270.749 127.52 273.5 126.222 272.481 124.593C271.343 122.772 268.45 124.301 268.45 124.301Z" fill="#263238"/>
<path d="M257.566 122.975C257.566 122.975 264.792 124.211 265.406 124.391C266.019 124.57 268.426 125.698 268.549 126.434C268.613 127.401 268.613 128.371 268.549 129.337C268.549 129.337 268.115 129.691 267.841 128.983C267.663 128.293 267.585 127.581 267.61 126.869L266.26 126.349L266.996 127.657L267.119 130.725C267.119 130.725 266.175 130.64 265.996 129.904C265.88 129.396 265.82 128.876 265.816 128.355L264.83 127.52L265.566 128.516L265.816 130.725C265.816 130.725 265.099 130.956 264.872 130.465C264.706 129.829 264.624 129.174 264.627 128.516L261.851 127.548L260.015 128.573L257.127 126.968L257.566 122.975Z" fill="#FFBE9D"/>
<path d="M268.818 112.912C268.818 115.838 267.473 118.207 265.816 118.207C264.159 118.207 262.814 115.847 262.814 112.912C262.814 109.976 264.155 107.616 265.816 107.616C267.478 107.616 268.818 109.976 268.818 112.912Z" fill="#263238"/>
<path d="M266.307 116.551L267.959 122.272C268.261 122.12 268.501 121.869 268.641 121.562C268.781 121.255 268.812 120.909 268.729 120.582C268.313 118.623 268.077 117.231 267.624 115.512C267.567 115.343 266.307 116.551 266.307 116.551Z" fill="#263238"/>
<g opacity="0.4">
<path opacity="0.4" d="M233.64 185.765C233.48 185.293 233.31 184.821 233.168 184.316C233.027 183.811 232.847 183.372 232.724 182.9C232.534 182.192 232.395 181.471 232.309 180.743C229.524 192.071 233.777 200.062 241.074 200.623C251.741 201.445 264.745 202.039 270.003 200.661C279.589 198.145 283.106 190.15 283.946 188.833C284.786 187.516 292.409 173.578 287.722 160.159C283.035 146.74 274.907 132.49 274.907 132.49L267.152 135.096C267.152 135.096 268.568 141.704 270.82 149.652C273.298 158.37 276.611 172.006 276.422 179.983C276.302 184.778 274.752 189.428 271.971 193.336H236.736C236.736 193.336 235.981 192.581 233.654 185.784" fill="black"/>
</g>
<path d="M158.875 179.728L159.125 177.038L223.45 184.448C224.309 184.549 225.139 184.825 225.888 185.258C226.638 185.692 227.29 186.274 227.807 186.969C228.323 187.663 228.692 188.456 228.89 189.299C229.089 190.141 229.114 191.016 228.962 191.868L228.675 193.496L162.123 183.825C161.157 183.693 160.28 183.193 159.675 182.429C159.07 181.666 158.783 180.698 158.875 179.728Z" fill="#E6D14C"/>
<g opacity="0.6">
<path opacity="0.6" d="M158.875 179.728L159.125 177.038L223.45 184.448C224.309 184.549 225.139 184.825 225.888 185.258C226.638 185.692 227.29 186.274 227.807 186.969C228.323 187.663 228.692 188.456 228.89 189.299C229.089 190.141 229.114 191.016 228.962 191.868L228.675 193.496L162.123 183.825C161.157 183.693 160.28 183.193 159.675 182.429C159.07 181.666 158.783 180.698 158.875 179.728Z" fill="black"/>
</g>
<g opacity="0.3">
<path opacity="0.3" d="M283.946 197.721C283.946 197.721 298.106 182.145 301.028 169.901C302.495 169.892 303.962 170.001 305.412 170.227C305.412 170.227 297.039 192.991 283.946 197.721Z" fill="black"/>
</g>
<path d="M300.82 164.417C300.856 164.545 300.882 164.676 300.895 164.808C300.933 165.068 301.009 165.45 301.056 165.946C301.194 167.361 301.157 168.788 300.947 170.194C300.615 172.271 299.978 174.287 299.059 176.179C297.938 178.482 296.686 180.72 295.311 182.881C292.844 186.826 290.073 190.572 287.023 194.086C285.871 195.451 284.918 196.536 284.257 197.282L283.493 198.136C283.406 198.238 283.313 198.334 283.214 198.424C283.284 198.311 283.365 198.205 283.455 198.108L284.186 197.221L286.891 193.978C289.893 190.437 292.637 186.686 295.104 182.754C296.48 180.599 297.741 178.373 298.88 176.084C299.787 174.211 300.423 172.218 300.768 170.165C300.985 168.78 301.046 167.374 300.952 165.974C300.919 165.479 300.857 165.096 300.839 164.832C300.819 164.694 300.812 164.555 300.82 164.417Z" fill="#263238"/>
<path d="M276.342 197.608C275.531 196.987 274.772 196.302 274.071 195.559C273.316 194.874 272.615 194.131 271.976 193.336C273.544 194.64 275.004 196.068 276.342 197.608Z" fill="#263238"/>
<path d="M234.315 197.131C234.543 196.403 234.896 195.721 235.358 195.115C235.752 194.463 236.255 193.883 236.845 193.402C236.897 193.454 236.25 194.228 235.561 195.252C234.872 196.276 234.381 197.159 234.315 197.131Z" fill="#263238"/>
<path d="M207.109 206.122C207.883 205.416 208.535 204.587 209.039 203.668C209.568 202.664 209.889 201.565 209.983 200.435C210.126 199.057 209.886 197.666 209.287 196.417C208.689 195.167 207.757 194.107 206.594 193.355C205.657 192.718 204.601 192.276 203.489 192.057C202.458 191.871 201.404 191.856 200.369 192.014C200.435 191.986 200.505 191.965 200.576 191.953C200.781 191.899 200.989 191.858 201.199 191.83C201.972 191.727 202.755 191.746 203.522 191.887C204.665 192.089 205.754 192.524 206.722 193.166C207.931 193.934 208.9 195.027 209.517 196.32C210.134 197.613 210.374 199.054 210.21 200.477C210.102 201.637 209.754 202.762 209.19 203.781C208.819 204.466 208.341 205.088 207.774 205.622C207.626 205.769 207.468 205.906 207.302 206.033C207.242 206.07 207.177 206.1 207.109 206.122Z" fill="#263238"/>
<path d="M183.608 201.19C183.446 200.446 183.368 199.686 183.377 198.924C183.295 198.165 183.295 197.399 183.377 196.64C183.612 198.144 183.685 199.67 183.594 201.19H183.608Z" fill="#263238"/>
<path d="M185.326 201.195C184.973 199.7 184.778 198.171 184.746 196.635C184.961 197.374 185.098 198.133 185.156 198.901C185.293 199.657 185.35 200.426 185.326 201.195Z" fill="#263238"/>
<path d="M211.857 157.539C211.857 157.605 204.036 157.662 194.393 157.662C184.75 157.662 176.929 157.605 176.929 157.539C176.929 157.473 184.75 157.417 194.393 157.417C204.036 157.417 211.857 157.468 211.857 157.539Z" fill="#263238"/>
<path d="M186.53 157.516C186.459 157.516 186.407 148.548 186.407 137.512C186.407 126.477 186.44 117.528 186.53 117.528C186.619 117.528 186.652 126.496 186.652 137.536C186.652 148.576 186.596 157.516 186.53 157.516Z" fill="#263238"/>
<path d="M181.72 157.483C181.654 157.483 181.989 148.515 182.47 137.489C182.952 126.463 183.414 117.5 183.462 117.504C183.509 117.509 183.197 126.472 182.716 137.498C182.234 148.524 181.81 157.488 181.72 157.483Z" fill="#263238"/>
<path d="M170.906 212.069C170.83 212.005 170.761 211.934 170.699 211.857C170.576 211.715 170.373 211.512 170.151 211.224C169.499 210.423 168.916 209.567 168.409 208.666C166.701 205.684 165.809 202.303 165.823 198.866C165.837 195.429 166.757 192.056 168.49 189.088C169.002 188.19 169.591 187.339 170.25 186.544C170.477 186.256 170.68 186.072 170.807 185.911C170.935 185.751 171.01 185.699 171.015 185.708C170.968 185.793 170.911 185.873 170.845 185.944C170.732 186.1 170.538 186.308 170.326 186.605C167.905 189.689 166.446 193.419 166.132 197.327C165.818 201.236 166.663 205.15 168.561 208.581C169.049 209.483 169.606 210.346 170.227 211.163C170.434 211.46 170.623 211.673 170.736 211.829C170.85 211.984 170.916 212.06 170.906 212.069Z" fill="#455A64"/>
<path d="M238.525 176.108L238.379 176.382L235.528 181.72L231.544 185.553L239.507 196.154L246.138 195.054C246.138 195.054 245.397 193.539 242.065 193.246L240.805 186.912L245.482 179.662" fill="#455A64"/>
<path d="M231.554 185.567L239.516 196.168L246.148 195.068L245.237 194.195L239.795 194.789L232.403 184.75L231.554 185.567Z" fill="#E0E0E0"/>
<path d="M241.546 190.348C241.508 190.424 241.074 190.268 240.602 190.372C240.13 190.476 239.748 190.745 239.686 190.688C239.625 190.631 239.922 190.188 240.545 190.079C241.168 189.971 241.598 190.287 241.546 190.348Z" fill="#263238"/>
<path d="M241.192 188.8C241.135 188.857 240.772 188.517 240.248 188.498C239.724 188.479 239.304 188.795 239.262 188.734C239.219 188.672 239.295 188.587 239.465 188.451C239.694 188.283 239.973 188.197 240.258 188.205C240.542 188.213 240.815 188.318 241.032 188.503C241.159 188.635 241.192 188.762 241.192 188.8Z" fill="#263238"/>
<path d="M240.885 186.746C240.819 186.798 240.526 186.454 240.04 186.369C239.554 186.284 239.162 186.506 239.096 186.435C239.03 186.364 239.139 186.298 239.313 186.199C239.544 186.077 239.809 186.036 240.065 186.082C240.322 186.128 240.556 186.259 240.729 186.454C240.89 186.605 240.918 186.728 240.885 186.746Z" fill="#263238"/>
<path d="M242.395 184.882C242.325 184.92 242.075 184.575 241.617 184.377C241.159 184.179 240.744 184.207 240.725 184.127C240.706 184.047 241.197 183.853 241.739 184.127C242.282 184.401 242.476 184.858 242.395 184.882Z" fill="#263238"/>
<path d="M243.038 183.377C243.004 183.4 242.745 183.174 242.344 182.777L241.664 182.074C241.51 181.936 241.377 181.777 241.268 181.602C241.236 181.539 241.217 181.47 241.212 181.399C241.207 181.329 241.217 181.258 241.239 181.191C241.266 181.115 241.315 181.048 241.38 180.999C241.444 180.951 241.522 180.922 241.603 180.917C241.844 180.921 242.079 180.996 242.278 181.135C242.451 181.245 242.609 181.377 242.75 181.526C242.984 181.785 243.157 182.093 243.255 182.428C243.379 182.73 243.379 183.07 243.255 183.372C243.207 183.08 243.14 182.792 243.056 182.508C242.941 182.218 242.77 181.953 242.551 181.729C242.423 181.602 242.278 181.491 242.122 181.399C241.972 181.301 241.8 181.241 241.622 181.224C241.597 181.225 241.573 181.233 241.552 181.247C241.532 181.261 241.517 181.281 241.508 181.305C241.483 181.367 241.483 181.436 241.508 181.498C241.6 181.65 241.711 181.79 241.839 181.913L242.485 182.664C242.706 182.87 242.893 183.111 243.038 183.377Z" fill="#263238"/>
<path d="M243.307 183.532C243.274 183.532 243.24 183.183 243.533 182.725C243.732 182.423 244.023 182.193 244.364 182.07C244.704 181.947 245.075 181.936 245.421 182.041C245.459 182.066 245.491 182.098 245.516 182.136C245.54 182.175 245.556 182.218 245.563 182.263C245.569 182.34 245.552 182.417 245.515 182.484C245.463 182.579 245.394 182.663 245.313 182.735C245.181 182.861 245.039 182.977 244.888 183.079C244.633 183.251 244.352 183.381 244.057 183.466C243.793 183.573 243.503 183.595 243.226 183.528C243.226 183.48 243.533 183.452 243.991 183.268C244.255 183.163 244.504 183.025 244.732 182.857C244.867 182.758 244.993 182.647 245.11 182.527C245.167 182.476 245.216 182.418 245.256 182.352C245.28 182.286 245.256 182.305 245.256 182.291C245.192 182.263 245.123 182.249 245.053 182.248C244.97 182.241 244.886 182.241 244.803 182.248C244.641 182.263 244.482 182.301 244.331 182.362C244.076 182.461 243.85 182.623 243.675 182.834C243.536 183.058 243.413 183.291 243.307 183.532Z" fill="#263238"/>
<path d="M236.812 184.486C236.838 184.641 236.817 184.801 236.752 184.945C236.687 185.089 236.581 185.21 236.447 185.294C236.313 185.377 236.157 185.419 235.999 185.414C235.841 185.409 235.689 185.357 235.56 185.265C235.432 185.173 235.334 185.045 235.278 184.898C235.223 184.75 235.212 184.589 235.248 184.435C235.284 184.281 235.365 184.142 235.48 184.034C235.596 183.926 235.74 183.855 235.896 183.83C236.104 183.797 236.317 183.847 236.488 183.97C236.66 184.093 236.776 184.278 236.812 184.486Z" fill="#E0E0E0"/>
<path d="M262.692 181.205L264.82 195.025L282.034 192.467C281.685 190.839 272.292 188.861 272.292 188.861L271.291 179.95L262.692 181.205Z" fill="#455A64"/>
<path d="M266.859 188.909C266.701 188.983 266.576 189.113 266.508 189.274C266.44 189.436 266.434 189.616 266.491 189.782C266.561 189.942 266.689 190.069 266.849 190.138C267.01 190.208 267.19 190.213 267.355 190.155C267.526 190.074 267.66 189.932 267.731 189.757C267.801 189.582 267.804 189.387 267.737 189.211C267.648 189.049 267.5 188.929 267.324 188.875C267.147 188.821 266.957 188.838 266.793 188.923" fill="#E0E0E0"/>
<path d="M264.82 195.026L264.66 193.61L281.222 191.679C281.222 191.679 282.039 191.901 282.034 192.453L264.82 195.026Z" fill="#E0E0E0"/>
<path d="M272.556 188.734C272.556 188.819 272.155 188.918 271.778 189.248C271.4 189.579 271.239 189.966 271.154 189.947C271.07 189.928 271.126 189.418 271.584 189.027C272.042 188.635 272.566 188.654 272.556 188.734Z" fill="#263238"/>
<path d="M274.473 189.21C274.506 189.291 274.161 189.484 273.93 189.885C273.699 190.287 273.67 190.669 273.585 190.678C273.5 190.688 273.378 190.206 273.675 189.734C273.972 189.262 274.459 189.13 274.473 189.21Z" fill="#263238"/>
<path d="M275.823 191.216C275.747 191.249 275.568 190.844 275.714 190.353C275.86 189.862 276.228 189.616 276.276 189.682C276.323 189.749 276.115 190.032 275.997 190.438C275.879 190.844 275.903 191.198 275.823 191.216Z" fill="#263238"/>
<path d="M272.103 186.728C272.103 186.808 271.678 186.751 271.206 186.85C270.734 186.95 270.39 187.162 270.333 187.096C270.277 187.03 270.593 186.676 271.145 186.562C271.697 186.449 272.136 186.652 272.103 186.728Z" fill="#263238"/>
<path d="M271.4 184.745C271.128 184.864 270.83 184.906 270.536 184.868C270.217 184.859 269.9 184.812 269.592 184.726C269.404 184.682 269.22 184.623 269.04 184.552C268.935 184.514 268.837 184.458 268.752 184.387C268.687 184.336 268.641 184.265 268.622 184.186C268.604 184.106 268.613 184.022 268.648 183.948C268.681 183.882 268.73 183.826 268.789 183.782C268.848 183.739 268.916 183.71 268.988 183.698C269.096 183.681 269.206 183.681 269.314 183.698C269.506 183.712 269.696 183.746 269.88 183.801C270.19 183.889 270.485 184.025 270.753 184.203C271.225 184.514 271.39 184.807 271.362 184.83C271.334 184.854 271.093 184.627 270.645 184.382C270.382 184.24 270.101 184.133 269.809 184.066C269.639 184.021 269.465 183.994 269.29 183.985C269.101 183.985 268.945 183.985 268.912 184.075C268.879 184.165 268.912 184.118 268.945 184.17C269.01 184.219 269.082 184.258 269.158 184.288C269.32 184.361 269.485 184.425 269.653 184.481C269.941 184.573 270.237 184.638 270.536 184.675C270.825 184.678 271.114 184.701 271.4 184.745Z" fill="#263238"/>
<path d="M271.301 184.882C271.273 184.882 271.06 184.623 270.947 184.085C270.896 183.772 270.896 183.453 270.947 183.141C270.977 182.951 271.025 182.765 271.089 182.584C271.117 182.465 271.175 182.355 271.258 182.265C271.34 182.175 271.445 182.108 271.561 182.069C271.637 182.059 271.715 182.072 271.785 182.104C271.855 182.137 271.915 182.188 271.957 182.253C272.016 182.349 272.062 182.452 272.094 182.56C272.152 182.748 272.18 182.944 272.179 183.141C272.179 183.47 272.098 183.794 271.943 184.085C271.674 184.557 271.339 184.731 271.329 184.703C271.32 184.675 271.56 184.462 271.754 183.995C271.867 183.726 271.918 183.436 271.905 183.145C271.9 182.977 271.87 182.809 271.815 182.65C271.763 182.47 271.674 182.334 271.608 182.362C271.542 182.39 271.395 182.532 271.348 182.688C271.284 182.849 271.235 183.017 271.202 183.188C271.148 183.479 271.136 183.776 271.164 184.07C271.206 184.552 271.343 184.863 271.301 184.882Z" fill="#263238"/>
<path d="M249.15 148.741L234.39 180.903L244.137 186.756L264.546 148.057" fill="#263238"/>
<path d="M273.491 187.488L262.904 189.187L256.565 151.361L225.248 153.631C224.42 153.689 223.587 153.61 222.784 153.4C213.991 150.988 215.18 139.773 216.03 137.975L259.364 136.733C261.634 136.667 263.849 137.441 265.584 138.907C267.319 140.373 268.452 142.428 268.766 144.677L273.491 187.488Z" fill="#263238"/>
<path d="M215.591 139.75L215.746 123.758C215.746 123.758 213.684 113.374 213.07 109.273C212.126 102.929 210.823 99.9129 221.217 95.4053L223.492 94.5273L227.008 94.5745C231.2 94.8908 235.618 98.6809 235.722 101.183L239.776 137.229L215.591 139.75Z" fill="#E6D14C"/>
<path d="M216.242 99.1196C216.242 99.1196 213.306 105.435 213.882 111.189L224.818 121.686C227.268 124.414 230.336 125.575 234.258 125.811L256.886 128.285L257.514 122.366L236 116.267C235.141 116.107 234.711 115.215 234.055 114.639L216.242 99.1196Z" fill="#E6D14C"/>
<path d="M214.472 100.942C214.599 100.82 214.746 100.721 214.906 100.649C215.372 100.444 215.865 100.305 216.37 100.238C217.179 100.105 218.005 100.105 218.815 100.238C219.065 100.284 219.307 100.366 219.532 100.484C219.763 100.628 219.985 100.786 220.198 100.956C220.632 101.296 221.071 101.687 221.519 102.112C222.425 102.957 223.284 104.028 224.29 105.114C225.295 106.2 226.395 107.365 227.594 108.588C228.793 109.81 230.081 111.09 231.459 112.411C232.153 113.072 232.875 113.742 233.626 114.398C234.008 114.71 234.386 115.078 234.749 115.423C235.092 115.777 235.524 116.031 236 116.159L257.556 122.248L257.655 122.276V122.38C257.613 122.8 257.561 123.248 257.514 123.706C257.349 125.278 257.183 126.835 257.042 128.299V128.421H256.919L247.328 127.355L242.797 126.859L238.459 126.42C237.043 126.264 235.679 126.104 234.353 125.91C233.057 125.751 231.782 125.455 230.548 125.028C229.411 124.595 228.336 124.016 227.348 123.305C226.404 122.639 225.517 121.946 224.7 121.261C221.467 118.505 219.093 116.036 217.446 114.356C216.629 113.511 216.001 112.845 215.581 112.392L215.109 111.873L214.954 111.689C214.954 111.689 215.015 111.741 215.128 111.854C215.242 111.967 215.407 112.142 215.6 112.359L217.488 114.294C219.154 115.951 221.547 118.401 224.785 121.134C225.602 121.809 226.475 122.498 227.424 123.154C228.405 123.85 229.471 124.418 230.596 124.844C231.821 125.262 233.086 125.549 234.372 125.703C235.698 125.891 237.067 126.052 238.473 126.203L242.811 126.628L247.342 127.123L256.924 128.167L256.787 128.275C256.943 126.812 257.108 125.254 257.259 123.678C257.311 123.206 257.358 122.772 257.401 122.351L257.49 122.484L235.967 116.371C235.442 116.241 234.964 115.964 234.589 115.574C234.206 115.21 233.862 114.87 233.47 114.545C232.71 113.884 231.998 113.209 231.304 112.548C229.925 111.222 228.642 109.933 227.447 108.706C226.253 107.479 225.158 106.308 224.143 105.208C223.129 104.109 222.298 103.042 221.401 102.197C220.989 101.788 220.554 101.402 220.098 101.041C219.893 100.868 219.675 100.71 219.447 100.569C219.233 100.452 219.002 100.371 218.763 100.328C217.966 100.182 217.151 100.169 216.351 100.29C215.85 100.346 215.359 100.472 214.892 100.663C214.745 100.745 214.605 100.838 214.472 100.942Z" fill="#263238"/>
<path d="M220.122 80.6554L221.217 96.2314C221.304 97.456 221.852 98.602 222.751 99.4385C223.65 100.275 224.832 100.74 226.06 100.739C226.724 100.739 227.38 100.603 227.99 100.339C228.599 100.075 229.147 99.6889 229.601 99.2045C230.055 98.72 230.405 98.1475 230.629 97.5225C230.852 96.8974 230.946 96.2331 230.902 95.5706C230.803 94.0885 230.718 92.8755 230.718 92.8755C230.718 92.8755 234.494 92.2902 234.532 88.5189C234.56 86.343 234.183 81.4059 233.862 77.6204C233.756 76.3839 233.189 75.2323 232.274 74.3945C231.358 73.5568 230.161 73.0942 228.92 73.0987H226.64C225.712 73.155 224.804 73.3968 223.971 73.8096C223.137 74.2223 222.395 74.7979 221.787 75.5022C221.18 76.2065 220.719 77.0253 220.433 77.9103C220.147 78.7954 220.041 79.7288 220.122 80.6554Z" fill="#FFBE9D"/>
<path d="M230.723 92.8138C228.983 92.8465 227.273 92.3619 225.81 91.4214C225.81 91.4214 226.971 94.1307 230.733 93.7814L230.723 92.8138Z" fill="#EB996E"/>
<path d="M233.017 82.4582C233.018 82.5985 232.965 82.7338 232.868 82.8352C232.771 82.9366 232.638 82.9961 232.498 83.001C232.43 83.0075 232.362 83.0003 232.297 82.9799C232.232 82.9596 232.172 82.9264 232.12 82.8824C232.068 82.8384 232.025 82.7845 231.994 82.7238C231.964 82.6631 231.945 82.5969 231.941 82.529C231.939 82.3882 231.993 82.2524 232.09 82.1503C232.186 82.0481 232.319 81.9876 232.46 81.9815C232.597 81.9711 232.732 82.0154 232.837 82.1047C232.941 82.1941 233.006 82.3212 233.017 82.4582Z" fill="#263238"/>
<path d="M233.215 81.3961C233.144 81.4669 232.743 81.1648 232.158 81.1648C231.573 81.1648 231.157 81.4574 231.091 81.3866C231.025 81.3158 231.129 81.2261 231.318 81.094C231.566 80.9192 231.864 80.8268 232.167 80.8297C232.469 80.829 232.764 80.9249 233.008 81.1034C233.168 81.2356 233.244 81.363 233.215 81.3961Z" fill="#263238"/>
<path d="M227.58 82.4582C227.582 82.5989 227.529 82.7348 227.432 82.8365C227.334 82.9382 227.201 82.9973 227.06 83.001C226.993 83.0075 226.924 83.0003 226.859 82.9799C226.794 82.9596 226.734 82.9264 226.682 82.8824C226.63 82.8384 226.588 82.7845 226.557 82.7238C226.526 82.6631 226.508 82.5969 226.503 82.529C226.502 82.3882 226.555 82.2524 226.652 82.1503C226.749 82.0481 226.882 81.9876 227.023 81.9815C227.16 81.9711 227.295 82.0154 227.4 82.1047C227.504 82.1941 227.569 82.3212 227.58 82.4582Z" fill="#263238"/>
<path d="M227.504 81.5049C227.438 81.5757 227.032 81.2737 226.447 81.2737C225.861 81.2737 225.446 81.5663 225.385 81.4955C225.323 81.4247 225.418 81.335 225.606 81.2029C225.855 81.0281 226.152 80.9357 226.456 80.9385C226.758 80.9365 227.052 81.0307 227.296 81.2076C227.504 81.3445 227.556 81.4719 227.504 81.5049Z" fill="#263238"/>
<path d="M229.623 85.7999C229.93 85.7043 230.247 85.6472 230.567 85.63C230.714 85.63 230.855 85.5828 230.879 85.4837C230.894 85.3305 230.86 85.1764 230.78 85.0447L230.336 83.9214C229.929 82.968 229.601 81.983 229.354 80.9761C229.833 81.895 230.241 82.8497 230.572 83.8317L230.987 84.9645C231.082 85.1425 231.11 85.3481 231.068 85.545C231.046 85.5975 231.013 85.6444 230.97 85.682C230.927 85.7196 230.877 85.747 230.822 85.7622C230.74 85.7833 230.656 85.7944 230.572 85.7952C230.257 85.8367 229.938 85.8382 229.623 85.7999Z" fill="#263238"/>
<path d="M227.919 86.2013C228.014 86.2013 228.014 86.8243 228.552 87.268C229.09 87.7117 229.76 87.6456 229.765 87.74C229.77 87.8344 229.614 87.858 229.331 87.8674C228.963 87.8716 228.605 87.7463 228.321 87.5134C228.054 87.2865 227.884 86.9652 227.849 86.6166C227.806 86.3759 227.877 86.1965 227.919 86.2013Z" fill="#263238"/>
<path d="M227.669 79.2346C227.612 79.3904 227.037 79.3196 226.357 79.3998C225.677 79.48 225.125 79.6688 225.035 79.5272C224.946 79.3856 225.092 79.3101 225.314 79.1591C225.609 78.9709 225.943 78.8531 226.291 78.8146C226.639 78.7762 226.991 78.8181 227.32 78.9372C227.57 79.0364 227.697 79.1591 227.669 79.2346Z" fill="#263238"/>
<path d="M232.998 79.7205C232.899 79.8526 232.498 79.7205 232.021 79.7205C231.544 79.7205 231.134 79.8054 231.039 79.6686C230.945 79.5317 231.063 79.4703 231.242 79.3476C231.478 79.1927 231.758 79.1167 232.04 79.1305C232.32 79.1364 232.592 79.2287 232.819 79.3948C232.989 79.5223 233.045 79.6544 232.998 79.7205Z" fill="#263238"/>
<path d="M221.391 83.4872C221.325 83.4589 218.8 82.7178 218.885 85.2949C218.97 87.8721 221.533 87.2585 221.538 87.1829C221.542 87.1074 221.391 83.4872 221.391 83.4872Z" fill="#FFBE9D"/>
<path d="M220.717 86.2345C220.717 86.2345 220.674 86.2675 220.599 86.3053C220.491 86.3463 220.371 86.3463 220.263 86.3053C220.095 86.205 219.955 86.0618 219.86 85.8901C219.765 85.7184 219.717 85.5245 219.721 85.3282C219.707 85.1076 219.742 84.8868 219.824 84.6816C219.846 84.6 219.887 84.5248 219.943 84.4623C220 84.3999 220.071 84.352 220.15 84.3229C220.202 84.3083 220.257 84.3121 220.306 84.3337C220.355 84.3552 220.395 84.3931 220.419 84.4409C220.457 84.5117 220.443 84.5636 220.457 84.5683C220.471 84.573 220.509 84.5211 220.485 84.4173C220.469 84.3525 220.431 84.2956 220.377 84.2568C220.341 84.2314 220.3 84.2133 220.257 84.2036C220.214 84.1939 220.17 84.1927 220.127 84.2001C220.018 84.2213 219.917 84.2709 219.834 84.3439C219.751 84.4169 219.689 84.5106 219.655 84.6155C219.551 84.8415 219.506 85.0897 219.522 85.3377C219.516 85.5673 219.578 85.7936 219.701 85.9878C219.824 86.182 220.001 86.3352 220.212 86.428C220.281 86.4463 220.353 86.4486 220.424 86.4347C220.494 86.4208 220.56 86.3911 220.617 86.3477C220.717 86.2958 220.726 86.2392 220.717 86.2345Z" fill="#EB996E"/>
<path d="M219.952 83.3974C220.197 83.3816 220.442 83.4324 220.661 83.5446C220.879 83.6568 221.063 83.8262 221.193 84.0346C221.358 84.4028 221.396 84.8182 221.561 85.1863C221.633 85.3755 221.763 85.5368 221.933 85.6465C222.103 85.7561 222.304 85.8082 222.505 85.7952C222.639 85.7533 222.76 85.6765 222.854 85.5729C222.949 85.4692 223.014 85.3424 223.043 85.2052C223.098 84.931 223.098 84.6487 223.043 84.3745C222.892 83.1709 222.642 81.9814 222.595 80.7684C222.494 79.5514 222.759 78.332 223.355 77.2662C223.657 76.7382 224.097 76.3019 224.627 76.0036C225.157 75.7053 225.758 75.556 226.366 75.5717C227.169 75.6378 227.9 76.0437 228.698 76.1664C229.172 76.2284 229.653 76.182 230.106 76.0307C230.559 75.8795 230.972 75.6273 231.313 75.2932C231.463 75.1664 231.621 75.0483 231.785 74.9392C231.775 74.6543 231.681 74.3786 231.516 74.1462C229.935 72.683 227.093 72.2583 225.007 72.8011C223.947 73.0622 222.957 73.5508 222.106 74.233C221.254 74.9152 220.561 75.7747 220.075 76.7517C219.178 78.7058 219.442 81.4198 219.938 83.3974" fill="#263238"/>
<path d="M233.904 77.0349C233.904 77.0349 224.021 73.8537 219.744 82.4063C219.414 81.3307 219.199 80.2232 219.102 79.1023C219.102 78.3377 219.574 73.7734 224.257 72.3385C224.257 72.3574 231.332 69.6576 233.904 77.0349Z" fill="#E6D14C"/>
<path d="M225.408 77.2475C225.584 77.5313 225.823 77.7704 226.107 77.9459C226.391 78.1214 226.712 78.2285 227.044 78.2587C227.376 78.289 227.711 78.2415 228.022 78.12C228.333 77.9986 228.611 77.8065 228.835 77.559C228.933 77.8048 229.105 78.0138 229.327 78.1567C229.55 78.2996 229.811 78.3692 230.076 78.3557C230.34 78.3421 230.593 78.2461 230.8 78.0812C231.006 77.9163 231.156 77.6908 231.228 77.4363C231.492 77.7321 231.813 77.9714 232.172 78.1396C232.357 78.2182 232.562 78.2382 232.758 78.1969C232.955 78.1555 233.134 78.0548 233.272 77.9083C233.385 77.7373 233.439 77.5344 233.426 77.3301C233.413 77.1257 233.334 76.9311 233.201 76.7755C232.933 76.4656 232.588 76.2326 232.2 76.1005C231.029 75.5859 229.743 75.3904 228.472 75.5341C227.194 75.6876 226.024 76.3243 225.201 77.3136" fill="#263238"/>
<g opacity="0.4">
<path opacity="0.4" d="M233.904 77.0351C233.08 76.1727 231.953 75.6649 230.761 75.6191C227.844 75.4916 222.387 77.1295 219.744 82.4159C219.414 81.3403 219.199 80.2328 219.102 79.1119C219.102 78.3472 219.574 73.783 224.257 72.3481C224.257 72.3575 231.332 69.6577 233.904 77.0351Z" fill="black"/>
</g>
<path d="M220.155 81.4055C221.654 79.1735 223.618 77.2927 225.913 75.8926C228.188 74.4766 231.946 73.0606 234.532 72.3809C235.3 72.1273 236.113 72.042 236.916 72.1307C237.316 72.1814 237.694 72.3437 238.006 72.5992C238.318 72.8546 238.552 73.1928 238.681 73.575C238.927 74.5521 237.194 76.0578 236.378 76.6478C235.581 77.1806 234.755 77.6691 233.904 78.111C233.904 78.111 233.928 76.2985 231.03 75.9256C227.089 75.4206 220.155 81.4055 220.155 81.4055Z" fill="#E6D14C"/>
<g opacity="0.3">
<path opacity="0.3" d="M216.676 113.525C217.696 115.985 218.725 119.019 220.202 121.233C221.679 123.447 223.652 125.415 226.107 126.425C229.194 127.718 232.842 127.926 235.91 126.605C236.16 126.496 236.651 126.359 236.604 126.09C236.604 126.09 235.589 125.972 235.273 125.92C229.076 124.891 228.401 124.136 225.432 121.776C223.582 120.317 219.48 115.895 216.676 113.525Z" fill="black"/>
</g>
<path d="M236.387 131.433C236.324 131.635 236.237 131.828 236.127 132.009C235.852 132.52 235.516 132.995 235.127 133.425C233.814 134.802 232.161 135.809 230.336 136.347C228.517 136.865 226.639 137.145 224.748 137.182C224.025 137.21 223.44 137.215 223.039 137.215C222.829 137.224 222.619 137.214 222.411 137.187C222.615 137.14 222.824 137.116 223.034 137.116L224.738 137.007C226.609 136.921 228.463 136.62 230.265 136.111C232.059 135.577 233.691 134.603 235.014 133.279C235.529 132.708 235.989 132.09 236.387 131.433Z" fill="#263238"/>
<path d="M263.088 190.315C263.068 190.268 263.055 190.219 263.05 190.168C263.05 190.06 263.003 189.914 262.965 189.734C262.895 189.338 262.791 188.79 262.663 188.063C262.404 186.591 262.04 184.49 261.587 181.899C260.704 176.679 259.487 169.49 258.141 161.551C257.542 157.955 256.971 154.518 256.447 151.38L256.57 151.479L243.019 152.456L239.129 152.72L238.091 152.781H237.827H237.732H237.822L238.091 152.748L239.125 152.654L243.009 152.324L256.551 151.243H256.655V151.347C257.183 154.485 257.764 157.921 258.368 161.513C259.685 169.457 260.874 176.65 261.743 181.875C262.158 184.471 262.498 186.595 262.739 188.049L262.994 189.734C263.022 189.914 263.041 190.06 263.055 190.168C263.072 190.216 263.083 190.265 263.088 190.315Z" fill="#455A64"/>
<path d="M259.742 147.991C259.784 148.047 258.958 148.755 258.023 149.709C257.089 150.662 256.39 151.498 256.334 151.45C257.204 150.063 258.367 148.882 259.742 147.991Z" fill="#455A64"/>
<path d="M230.808 95.896C230.808 95.896 230.836 95.9479 230.865 96.0518C230.911 96.2054 230.942 96.3636 230.954 96.5238C231.009 97.1062 230.932 97.6936 230.728 98.2418C230.423 99.0612 229.88 99.7711 229.17 100.281C228.283 100.888 227.216 101.174 226.145 101.093C225.077 101.02 224.055 100.636 223.204 99.9882C222.518 99.4612 221.949 98.7974 221.533 98.0389C221.251 97.5337 221.035 96.9943 220.891 96.4341C220.844 96.2358 220.811 96.0801 220.797 95.9621C220.783 95.8441 220.797 95.7969 220.797 95.7969C221.016 96.5414 221.315 97.2599 221.689 97.9398C222.116 98.6594 222.679 99.2893 223.346 99.7947C224.17 100.405 225.154 100.766 226.178 100.833C227.196 100.911 228.211 100.647 229.062 100.083C229.741 99.6023 230.268 98.9372 230.581 98.1663C230.795 97.6443 230.897 97.0829 230.879 96.519C230.846 96.1226 230.808 95.9054 230.808 95.896Z" fill="#263238"/>
<path d="M237.468 116.508C237.414 116.356 237.379 116.197 237.364 116.036C237.312 115.664 237.251 115.21 237.175 114.687C237.02 113.483 236.817 111.935 236.595 110.221C236.373 108.508 236.212 106.917 236.123 105.747C236.071 105.176 236.038 104.708 236.019 104.388C235.996 104.222 235.996 104.053 236.019 103.887C236.068 104.041 236.101 104.199 236.118 104.359C236.17 104.732 236.231 105.18 236.302 105.709C236.453 106.913 236.647 108.461 236.859 110.174C237.071 111.888 237.256 113.478 237.369 114.644C237.421 115.22 237.459 115.682 237.482 116.008C237.497 116.175 237.492 116.343 237.468 116.508Z" fill="#263238"/>
</svg>
